<svg width="57" height="56" viewBox="0 0 57 56" fill="none" xmlns="http://www.w3.org/2000/svg">
<circle cx="28.2879" cy="27.9742" r="27.9742" fill="#000000"/>
<g clip-path="url(#clip0_1_935)">
<path fill-rule="evenodd" clip-rule="evenodd" d="M15.8811 31.8869C17.0077 30.7603 18.5357 30.1274 20.1289 30.1274H29.4538C31.047 30.1274 32.575 30.7603 33.7016 31.8869C34.8282 33.0135 35.4611 34.5415 35.4611 36.1348V38.466C35.4611 39.2087 34.8589 39.8109 34.1162 39.8109C33.3734 39.8109 32.7712 39.2087 32.7712 38.466V36.1348C32.7712 35.2549 32.4217 34.4111 31.7996 33.7889C31.1774 33.1668 30.3336 32.8173 29.4538 32.8173H20.1289C19.2491 32.8173 18.4053 33.1668 17.7831 33.7889C17.161 34.4111 16.8114 35.2549 16.8114 36.1348V38.466C16.8114 39.2087 16.2093 39.8109 15.4665 39.8109C14.7237 39.8109 14.1216 39.2087 14.1216 38.466V36.1348C14.1216 34.5415 14.7545 33.0135 15.8811 31.8869Z" fill="white"/>
<path fill-rule="evenodd" clip-rule="evenodd" d="M24.7913 18.83C22.9591 18.83 21.4739 20.3153 21.4739 22.1475C21.4739 23.9797 22.9591 25.465 24.7913 25.465C26.6235 25.465 28.1088 23.9797 28.1088 22.1475C28.1088 20.3153 26.6235 18.83 24.7913 18.83ZM18.784 22.1475C18.784 18.8297 21.4736 16.1402 24.7913 16.1402C28.1091 16.1402 30.7987 18.8297 30.7987 22.1475C30.7987 25.4653 28.1091 28.1548 24.7913 28.1548C21.4736 28.1548 18.784 25.4653 18.784 22.1475Z" fill="white"/>
<path fill-rule="evenodd" clip-rule="evenodd" d="M36.3105 31.2874C36.4962 30.5682 37.2297 30.1358 37.9489 30.3215C39.2377 30.6542 40.3794 31.4056 41.1949 32.4575C42.0104 33.5095 42.4534 34.8025 42.4544 36.1335V38.4657C42.4544 39.2085 41.8522 39.8106 41.1095 39.8106C40.3667 39.8106 39.7646 39.2085 39.7646 38.4657V36.1349C39.7639 35.4001 39.5192 34.6863 39.069 34.1055C38.6187 33.5246 37.9882 33.1096 37.2765 32.9259C36.5573 32.7402 36.1248 32.0066 36.3105 31.2874Z" fill="white"/>
<path fill-rule="evenodd" clip-rule="evenodd" d="M31.6476 17.303C31.8319 16.5835 32.5646 16.1495 33.2841 16.3337C34.5763 16.6646 35.7217 17.4161 36.5396 18.4698C37.3575 19.5235 37.8014 20.8194 37.8014 22.1533C37.8014 23.4872 37.3575 24.7832 36.5396 25.8369C35.7217 26.8906 34.5763 27.6421 33.2841 27.9729C32.5646 28.1572 31.8319 27.7232 31.6476 27.0036C31.4634 26.2841 31.8974 25.5514 32.6169 25.3671C33.3305 25.1844 33.963 24.7694 34.4147 24.1875C34.8664 23.6056 35.1116 22.89 35.1116 22.1533C35.1116 21.4167 34.8664 20.701 34.4147 20.1191C33.963 19.5372 33.3305 19.1222 32.6169 18.9395C31.8974 18.7553 31.4634 18.0226 31.6476 17.303Z" fill="white"/>
</g>
<defs>
<clipPath id="clip0_1_935">
<rect width="27.9742" height="27.9742" fill="white" transform="translate(14.3009 13.9883)"/>
</clipPath>
</defs>
</svg>
