<svg width="18" height="5" viewBox="0 0 18 5" fill="none" xmlns="http://www.w3.org/2000/svg">
<path d="M3.01654 4.79902C4.17528 4.79902 5.11463 3.85967 5.11463 2.70093C5.11463 1.54219 4.17528 0.602844 3.01654 0.602844C1.8578 0.602844 0.918457 1.54219 0.918457 2.70093C0.918457 3.85967 1.8578 4.79902 3.01654 4.79902Z" fill="#98A6AD"/>
<path d="M9.31079 4.79902C10.4695 4.79902 11.4089 3.85967 11.4089 2.70093C11.4089 1.54219 10.4695 0.602844 9.31079 0.602844C8.15205 0.602844 7.21271 1.54219 7.21271 2.70093C7.21271 3.85967 8.15205 4.79902 9.31079 4.79902Z" fill="#98A6AD"/>
<path d="M15.605 4.79902C16.7638 4.79902 17.7031 3.85967 17.7031 2.70093C17.7031 1.54219 16.7638 0.602844 15.605 0.602844C14.4463 0.602844 13.507 1.54219 13.507 2.70093C13.507 3.85967 14.4463 4.79902 15.605 4.79902Z" fill="#98A6AD"/>
</svg>
