<svg width="510" height="153" viewBox="0 0 510 153" fill="none" xmlns="http://www.w3.org/2000/svg">
<path d="M49.6257 126.225H506.183" stroke="black"/>
<path d="M82.2371 130.815V126.225" stroke="black"/>
<path d="M147.459 130.815V126.225" stroke="black"/>
<path d="M212.682 130.815V126.225" stroke="black"/>
<path d="M277.904 130.815V126.225" stroke="black"/>
<path d="M343.127 130.815V126.225" stroke="black"/>
<path d="M408.349 130.815V126.225" stroke="black"/>
<path d="M473.572 130.815V126.225" stroke="black"/>
<path d="M67.0611 149H66.2301L68.6335 142.455H69.4517L71.8551 149H71.0241L69.0682 143.49H69.017L67.0611 149ZM67.3679 146.443H70.7173V147.146H67.3679V146.443ZM75.8661 146.993V144.091H76.6204V149H75.8661V148.169H75.815C75.6999 148.418 75.521 148.63 75.2781 148.805C75.0352 148.978 74.7283 149.064 74.3576 149.064C74.0508 149.064 73.7781 148.997 73.5394 148.863C73.3008 148.726 73.1133 148.522 72.9769 148.249C72.8406 147.974 72.7724 147.628 72.7724 147.21V144.091H73.5266V147.159C73.5266 147.517 73.6268 147.803 73.8271 148.016C74.0295 148.229 74.2873 148.335 74.6005 148.335C74.788 148.335 74.9787 148.287 75.1726 148.191C75.3686 148.096 75.5327 147.949 75.6648 147.75C75.799 147.552 75.8661 147.3 75.8661 146.993ZM79.9834 150.943C79.6191 150.943 79.3058 150.896 79.0438 150.803C78.7817 150.711 78.5633 150.589 78.3886 150.438C78.216 150.289 78.0786 150.129 77.9763 149.959L78.5771 149.537C78.6453 149.626 78.7316 149.729 78.836 149.844C78.9404 149.961 79.0832 150.062 79.2643 150.147C79.4475 150.235 79.6872 150.278 79.9834 150.278C80.3797 150.278 80.7068 150.183 80.9646 149.991C81.2224 149.799 81.3513 149.499 81.3513 149.089V148.092H81.2874C81.232 148.182 81.1531 148.293 81.0509 148.425C80.9507 148.555 80.8058 148.671 80.6162 148.773C80.4287 148.873 80.1752 148.923 79.8556 148.923C79.4593 148.923 79.1034 148.83 78.7881 148.642C78.4749 148.455 78.2267 148.182 78.0434 147.824C77.8623 147.466 77.7718 147.031 77.7718 146.52C77.7718 146.017 77.8602 145.579 78.037 145.206C78.2139 144.831 78.46 144.542 78.7753 144.337C79.0906 144.13 79.455 144.027 79.8683 144.027C80.1879 144.027 80.4415 144.08 80.629 144.187C80.8186 144.291 80.9635 144.411 81.0637 144.545C81.1659 144.677 81.2448 144.786 81.3002 144.871H81.3769V144.091H82.1056V149.141C82.1056 149.562 82.0097 149.906 81.8179 150.17C81.6283 150.436 81.3726 150.631 81.0509 150.755C80.7313 150.88 80.3754 150.943 79.9834 150.943ZM79.9578 148.246C80.2604 148.246 80.5161 148.176 80.7249 148.038C80.9337 147.9 81.0924 147.7 81.2011 147.44C81.3097 147.18 81.3641 146.869 81.3641 146.507C81.3641 146.153 81.3108 145.841 81.2043 145.571C81.0977 145.3 80.9401 145.088 80.7313 144.935C80.5225 144.781 80.2646 144.705 79.9578 144.705C79.6382 144.705 79.3719 144.786 79.1588 144.947C78.9479 145.109 78.7892 145.327 78.6826 145.599C78.5782 145.872 78.526 146.175 78.526 146.507C78.526 146.848 78.5793 147.15 78.6858 147.412C78.7945 147.672 78.9543 147.876 79.1652 148.025C79.3783 148.172 79.6425 148.246 79.9578 148.246ZM88.3058 142.455V149H87.5132V143.286H87.4749L85.8769 144.347V143.541L87.5132 142.455H88.3058ZM90.0349 147.658V147.006L92.9113 142.455H93.3843V143.464H93.0647L90.8914 146.903V146.955H94.765V147.658H90.0349ZM93.1159 149V147.46V147.156V142.455H93.8701V149H93.1159Z" fill="black" fill-opacity="0.4"/>
<path d="M133.061 149H132.23L134.634 142.455H135.452L137.855 149H137.024L135.068 143.49H135.017L133.061 149ZM133.368 146.443H136.717V147.146H133.368V146.443ZM141.866 146.993V144.091H142.62V149H141.866V148.169H141.815C141.7 148.418 141.521 148.63 141.278 148.805C141.035 148.978 140.728 149.064 140.358 149.064C140.051 149.064 139.778 148.997 139.539 148.863C139.301 148.726 139.113 148.522 138.977 148.249C138.841 147.974 138.772 147.628 138.772 147.21V144.091H139.527V147.159C139.527 147.517 139.627 147.803 139.827 148.016C140.029 148.229 140.287 148.335 140.6 148.335C140.788 148.335 140.979 148.287 141.173 148.191C141.369 148.096 141.533 147.949 141.665 147.75C141.799 147.552 141.866 147.3 141.866 146.993ZM145.983 150.943C145.619 150.943 145.306 150.896 145.044 150.803C144.782 150.711 144.563 150.589 144.389 150.438C144.216 150.289 144.079 150.129 143.976 149.959L144.577 149.537C144.645 149.626 144.732 149.729 144.836 149.844C144.94 149.961 145.083 150.062 145.264 150.147C145.448 150.235 145.687 150.278 145.983 150.278C146.38 150.278 146.707 150.183 146.965 149.991C147.222 149.799 147.351 149.499 147.351 149.089V148.092H147.287C147.232 148.182 147.153 148.293 147.051 148.425C146.951 148.555 146.806 148.671 146.616 148.773C146.429 148.873 146.175 148.923 145.856 148.923C145.459 148.923 145.103 148.83 144.788 148.642C144.475 148.455 144.227 148.182 144.043 147.824C143.862 147.466 143.772 147.031 143.772 146.52C143.772 146.017 143.86 145.579 144.037 145.206C144.214 144.831 144.46 144.542 144.775 144.337C145.091 144.13 145.455 144.027 145.868 144.027C146.188 144.027 146.441 144.08 146.629 144.187C146.819 144.291 146.964 144.411 147.064 144.545C147.166 144.677 147.245 144.786 147.3 144.871H147.377V144.091H148.106V149.141C148.106 149.562 148.01 149.906 147.818 150.17C147.628 150.436 147.373 150.631 147.051 150.755C146.731 150.88 146.375 150.943 145.983 150.943ZM145.958 148.246C146.26 148.246 146.516 148.176 146.725 148.038C146.934 147.9 147.092 147.7 147.201 147.44C147.31 147.18 147.364 146.869 147.364 146.507C147.364 146.153 147.311 145.841 147.204 145.571C147.098 145.3 146.94 145.088 146.731 144.935C146.522 144.781 146.265 144.705 145.958 144.705C145.638 144.705 145.372 144.786 145.159 144.947C144.948 145.109 144.789 145.327 144.683 145.599C144.578 145.872 144.526 146.175 144.526 146.507C144.526 146.848 144.579 147.15 144.686 147.412C144.794 147.672 144.954 147.876 145.165 148.025C145.378 148.172 145.642 148.246 145.958 148.246ZM154.306 142.455V149H153.513V143.286H153.475L151.877 144.347V143.541L153.513 142.455H154.306ZM158.234 149.089C157.859 149.089 157.521 149.015 157.221 148.866C156.92 148.717 156.679 148.512 156.498 148.252C156.317 147.992 156.218 147.696 156.201 147.364H156.968C156.998 147.66 157.132 147.905 157.371 148.099C157.612 148.29 157.899 148.386 158.234 148.386C158.502 148.386 158.741 148.324 158.95 148.198C159.161 148.072 159.326 147.9 159.445 147.68C159.566 147.458 159.627 147.208 159.627 146.929C159.627 146.643 159.564 146.389 159.439 146.165C159.315 145.939 159.145 145.761 158.927 145.631C158.71 145.501 158.462 145.435 158.183 145.433C157.982 145.431 157.777 145.462 157.566 145.526C157.355 145.588 157.181 145.668 157.045 145.766L156.303 145.676L156.7 142.455H160.1V143.158H157.364L157.134 145.088H157.173C157.307 144.982 157.475 144.893 157.678 144.823C157.88 144.752 158.091 144.717 158.31 144.717C158.711 144.717 159.068 144.813 159.381 145.005C159.696 145.195 159.944 145.455 160.123 145.785C160.304 146.115 160.394 146.492 160.394 146.916C160.394 147.334 160.301 147.707 160.113 148.035C159.928 148.361 159.672 148.619 159.346 148.808C159.02 148.996 158.649 149.089 158.234 149.089Z" fill="black" fill-opacity="0.4"/>
<path d="M197.061 149H196.23L198.634 142.455H199.452L201.855 149H201.024L199.068 143.49H199.017L197.061 149ZM197.368 146.443H200.717V147.146H197.368V146.443ZM205.866 146.993V144.091H206.62V149H205.866V148.169H205.815C205.7 148.418 205.521 148.63 205.278 148.805C205.035 148.978 204.728 149.064 204.358 149.064C204.051 149.064 203.778 148.997 203.539 148.863C203.301 148.726 203.113 148.522 202.977 148.249C202.841 147.974 202.772 147.628 202.772 147.21V144.091H203.527V147.159C203.527 147.517 203.627 147.803 203.827 148.016C204.029 148.229 204.287 148.335 204.6 148.335C204.788 148.335 204.979 148.287 205.173 148.191C205.369 148.096 205.533 147.949 205.665 147.75C205.799 147.552 205.866 147.3 205.866 146.993ZM209.983 150.943C209.619 150.943 209.306 150.896 209.044 150.803C208.782 150.711 208.563 150.589 208.389 150.438C208.216 150.289 208.079 150.129 207.976 149.959L208.577 149.537C208.645 149.626 208.732 149.729 208.836 149.844C208.94 149.961 209.083 150.062 209.264 150.147C209.448 150.235 209.687 150.278 209.983 150.278C210.38 150.278 210.707 150.183 210.965 149.991C211.222 149.799 211.351 149.499 211.351 149.089V148.092H211.287C211.232 148.182 211.153 148.293 211.051 148.425C210.951 148.555 210.806 148.671 210.616 148.773C210.429 148.873 210.175 148.923 209.856 148.923C209.459 148.923 209.103 148.83 208.788 148.642C208.475 148.455 208.227 148.182 208.043 147.824C207.862 147.466 207.772 147.031 207.772 146.52C207.772 146.017 207.86 145.579 208.037 145.206C208.214 144.831 208.46 144.542 208.775 144.337C209.091 144.13 209.455 144.027 209.868 144.027C210.188 144.027 210.441 144.08 210.629 144.187C210.819 144.291 210.964 144.411 211.064 144.545C211.166 144.677 211.245 144.786 211.3 144.871H211.377V144.091H212.106V149.141C212.106 149.562 212.01 149.906 211.818 150.17C211.628 150.436 211.373 150.631 211.051 150.755C210.731 150.88 210.375 150.943 209.983 150.943ZM209.958 148.246C210.26 148.246 210.516 148.176 210.725 148.038C210.934 147.9 211.092 147.7 211.201 147.44C211.31 147.18 211.364 146.869 211.364 146.507C211.364 146.153 211.311 145.841 211.204 145.571C211.098 145.3 210.94 145.088 210.731 144.935C210.522 144.781 210.265 144.705 209.958 144.705C209.638 144.705 209.372 144.786 209.159 144.947C208.948 145.109 208.789 145.327 208.683 145.599C208.578 145.872 208.526 146.175 208.526 146.507C208.526 146.848 208.579 147.15 208.686 147.412C208.794 147.672 208.954 147.876 209.165 148.025C209.378 148.172 209.642 148.246 209.958 148.246ZM218.306 142.455V149H217.513V143.286H217.475L215.877 144.347V143.541L217.513 142.455H218.306ZM222.362 149.089C222.093 149.085 221.825 149.034 221.556 148.936C221.288 148.838 221.043 148.673 220.821 148.441C220.6 148.206 220.422 147.89 220.287 147.491C220.153 147.091 220.086 146.588 220.086 145.983C220.086 145.403 220.14 144.89 220.249 144.442C220.358 143.993 220.515 143.615 220.722 143.308C220.929 142.999 221.178 142.765 221.47 142.605C221.764 142.445 222.095 142.365 222.464 142.365C222.83 142.365 223.156 142.439 223.442 142.586C223.729 142.73 223.964 142.933 224.145 143.193C224.326 143.453 224.443 143.752 224.497 144.091H223.717C223.644 143.797 223.504 143.553 223.295 143.359C223.086 143.165 222.809 143.068 222.464 143.068C221.957 143.068 221.557 143.289 221.265 143.73C220.976 144.171 220.83 144.79 220.828 145.587H220.879C220.998 145.406 221.14 145.251 221.304 145.123C221.47 144.993 221.653 144.893 221.853 144.823C222.054 144.752 222.266 144.717 222.489 144.717C222.864 144.717 223.207 144.811 223.519 144.999C223.83 145.184 224.079 145.441 224.266 145.769C224.454 146.095 224.548 146.469 224.548 146.891C224.548 147.295 224.457 147.666 224.276 148.003C224.095 148.337 223.84 148.604 223.512 148.802C223.186 148.998 222.803 149.094 222.362 149.089ZM222.362 148.386C222.63 148.386 222.871 148.319 223.084 148.185C223.299 148.051 223.468 147.871 223.592 147.645C223.718 147.419 223.781 147.168 223.781 146.891C223.781 146.62 223.72 146.374 223.598 146.152C223.479 145.929 223.314 145.751 223.103 145.619C222.894 145.487 222.656 145.42 222.387 145.42C222.185 145.42 221.996 145.461 221.821 145.542C221.647 145.621 221.493 145.729 221.361 145.868C221.231 146.006 221.129 146.165 221.054 146.344C220.98 146.521 220.943 146.707 220.943 146.903C220.943 147.163 221.003 147.406 221.125 147.632C221.248 147.858 221.417 148.04 221.63 148.179C221.845 148.317 222.089 148.386 222.362 148.386Z" fill="black" fill-opacity="0.4"/>
<path d="M264.061 149H263.23L265.634 142.455H266.452L268.855 149H268.024L266.068 143.49H266.017L264.061 149ZM264.368 146.443H267.717V147.146H264.368V146.443ZM272.866 146.993V144.091H273.62V149H272.866V148.169H272.815C272.7 148.418 272.521 148.63 272.278 148.805C272.035 148.978 271.728 149.064 271.358 149.064C271.051 149.064 270.778 148.997 270.539 148.863C270.301 148.726 270.113 148.522 269.977 148.249C269.841 147.974 269.772 147.628 269.772 147.21V144.091H270.527V147.159C270.527 147.517 270.627 147.803 270.827 148.016C271.029 148.229 271.287 148.335 271.6 148.335C271.788 148.335 271.979 148.287 272.173 148.191C272.369 148.096 272.533 147.949 272.665 147.75C272.799 147.552 272.866 147.3 272.866 146.993ZM276.983 150.943C276.619 150.943 276.306 150.896 276.044 150.803C275.782 150.711 275.563 150.589 275.389 150.438C275.216 150.289 275.079 150.129 274.976 149.959L275.577 149.537C275.645 149.626 275.732 149.729 275.836 149.844C275.94 149.961 276.083 150.062 276.264 150.147C276.448 150.235 276.687 150.278 276.983 150.278C277.38 150.278 277.707 150.183 277.965 149.991C278.222 149.799 278.351 149.499 278.351 149.089V148.092H278.287C278.232 148.182 278.153 148.293 278.051 148.425C277.951 148.555 277.806 148.671 277.616 148.773C277.429 148.873 277.175 148.923 276.856 148.923C276.459 148.923 276.103 148.83 275.788 148.642C275.475 148.455 275.227 148.182 275.043 147.824C274.862 147.466 274.772 147.031 274.772 146.52C274.772 146.017 274.86 145.579 275.037 145.206C275.214 144.831 275.46 144.542 275.775 144.337C276.091 144.13 276.455 144.027 276.868 144.027C277.188 144.027 277.441 144.08 277.629 144.187C277.819 144.291 277.964 144.411 278.064 144.545C278.166 144.677 278.245 144.786 278.3 144.871H278.377V144.091H279.106V149.141C279.106 149.562 279.01 149.906 278.818 150.17C278.628 150.436 278.373 150.631 278.051 150.755C277.731 150.88 277.375 150.943 276.983 150.943ZM276.958 148.246C277.26 148.246 277.516 148.176 277.725 148.038C277.934 147.9 278.092 147.7 278.201 147.44C278.31 147.18 278.364 146.869 278.364 146.507C278.364 146.153 278.311 145.841 278.204 145.571C278.098 145.3 277.94 145.088 277.731 144.935C277.522 144.781 277.265 144.705 276.958 144.705C276.638 144.705 276.372 144.786 276.159 144.947C275.948 145.109 275.789 145.327 275.683 145.599C275.578 145.872 275.526 146.175 275.526 146.507C275.526 146.848 275.579 147.15 275.686 147.412C275.794 147.672 275.954 147.876 276.165 148.025C276.378 148.172 276.642 148.246 276.958 148.246ZM285.306 142.455V149H284.513V143.286H284.475L282.877 144.347V143.541L284.513 142.455H285.306ZM287.393 149L290.32 143.209V143.158H286.945V142.455H291.139V143.196L288.224 149H287.393Z" fill="black" fill-opacity="0.4"/>
<path d="M328.061 149H327.23L329.634 142.455H330.452L332.855 149H332.024L330.068 143.49H330.017L328.061 149ZM328.368 146.443H331.717V147.146H328.368V146.443ZM336.866 146.993V144.091H337.62V149H336.866V148.169H336.815C336.7 148.418 336.521 148.63 336.278 148.805C336.035 148.978 335.728 149.064 335.358 149.064C335.051 149.064 334.778 148.997 334.539 148.863C334.301 148.726 334.113 148.522 333.977 148.249C333.841 147.974 333.772 147.628 333.772 147.21V144.091H334.527V147.159C334.527 147.517 334.627 147.803 334.827 148.016C335.029 148.229 335.287 148.335 335.6 148.335C335.788 148.335 335.979 148.287 336.173 148.191C336.369 148.096 336.533 147.949 336.665 147.75C336.799 147.552 336.866 147.3 336.866 146.993ZM340.983 150.943C340.619 150.943 340.306 150.896 340.044 150.803C339.782 150.711 339.563 150.589 339.389 150.438C339.216 150.289 339.079 150.129 338.976 149.959L339.577 149.537C339.645 149.626 339.732 149.729 339.836 149.844C339.94 149.961 340.083 150.062 340.264 150.147C340.448 150.235 340.687 150.278 340.983 150.278C341.38 150.278 341.707 150.183 341.965 149.991C342.222 149.799 342.351 149.499 342.351 149.089V148.092H342.287C342.232 148.182 342.153 148.293 342.051 148.425C341.951 148.555 341.806 148.671 341.616 148.773C341.429 148.873 341.175 148.923 340.856 148.923C340.459 148.923 340.103 148.83 339.788 148.642C339.475 148.455 339.227 148.182 339.043 147.824C338.862 147.466 338.772 147.031 338.772 146.52C338.772 146.017 338.86 145.579 339.037 145.206C339.214 144.831 339.46 144.542 339.775 144.337C340.091 144.13 340.455 144.027 340.868 144.027C341.188 144.027 341.441 144.08 341.629 144.187C341.819 144.291 341.964 144.411 342.064 144.545C342.166 144.677 342.245 144.786 342.3 144.871H342.377V144.091H343.106V149.141C343.106 149.562 343.01 149.906 342.818 150.17C342.628 150.436 342.373 150.631 342.051 150.755C341.731 150.88 341.375 150.943 340.983 150.943ZM340.958 148.246C341.26 148.246 341.516 148.176 341.725 148.038C341.934 147.9 342.092 147.7 342.201 147.44C342.31 147.18 342.364 146.869 342.364 146.507C342.364 146.153 342.311 145.841 342.204 145.571C342.098 145.3 341.94 145.088 341.731 144.935C341.522 144.781 341.265 144.705 340.958 144.705C340.638 144.705 340.372 144.786 340.159 144.947C339.948 145.109 339.789 145.327 339.683 145.599C339.578 145.872 339.526 146.175 339.526 146.507C339.526 146.848 339.579 147.15 339.686 147.412C339.794 147.672 339.954 147.876 340.165 148.025C340.378 148.172 340.642 148.246 340.958 148.246ZM349.306 142.455V149H348.513V143.286H348.475L346.877 144.347V143.541L348.513 142.455H349.306ZM353.285 149.089C352.846 149.089 352.458 149.012 352.122 148.856C351.787 148.699 351.526 148.482 351.339 148.207C351.151 147.93 351.058 147.615 351.06 147.261C351.058 146.984 351.113 146.729 351.223 146.494C351.334 146.258 351.486 146.061 351.677 145.903C351.871 145.743 352.087 145.642 352.326 145.599V145.561C352.013 145.48 351.764 145.304 351.578 145.034C351.393 144.761 351.301 144.451 351.303 144.104C351.301 143.771 351.385 143.474 351.556 143.212C351.726 142.95 351.961 142.743 352.259 142.592C352.559 142.441 352.901 142.365 353.285 142.365C353.664 142.365 354.003 142.441 354.301 142.592C354.6 142.743 354.834 142.95 355.004 143.212C355.177 143.474 355.264 143.771 355.266 144.104C355.264 144.451 355.169 144.761 354.982 145.034C354.797 145.304 354.551 145.48 354.244 145.561V145.599C354.48 145.642 354.693 145.743 354.883 145.903C355.073 146.061 355.224 146.258 355.337 146.494C355.45 146.729 355.507 146.984 355.509 147.261C355.507 147.615 355.411 147.93 355.222 148.207C355.034 148.482 354.773 148.699 354.439 148.856C354.106 149.012 353.722 149.089 353.285 149.089ZM353.285 148.386C353.581 148.386 353.837 148.338 354.052 148.243C354.267 148.147 354.433 148.011 354.551 147.837C354.668 147.662 354.727 147.457 354.729 147.223C354.727 146.976 354.663 146.757 354.538 146.568C354.412 146.378 354.241 146.229 354.023 146.12C353.808 146.012 353.562 145.957 353.285 145.957C353.006 145.957 352.756 146.012 352.537 146.12C352.32 146.229 352.148 146.378 352.022 146.568C351.899 146.757 351.838 146.976 351.84 147.223C351.838 147.457 351.895 147.662 352.01 147.837C352.127 148.011 352.294 148.147 352.511 148.243C352.729 148.338 352.987 148.386 353.285 148.386ZM353.285 145.28C353.519 145.28 353.727 145.233 353.908 145.139C354.091 145.045 354.235 144.914 354.34 144.746C354.444 144.578 354.497 144.381 354.499 144.155C354.497 143.933 354.445 143.74 354.343 143.576C354.241 143.41 354.099 143.282 353.918 143.193C353.737 143.101 353.526 143.055 353.285 143.055C353.04 143.055 352.826 143.101 352.642 143.193C352.459 143.282 352.318 143.41 352.217 143.576C352.117 143.74 352.068 143.933 352.07 144.155C352.068 144.381 352.118 144.578 352.221 144.746C352.325 144.914 352.469 145.045 352.652 145.139C352.835 145.233 353.046 145.28 353.285 145.28Z" fill="black" fill-opacity="0.4"/>
<path d="M394.061 149H393.23L395.634 142.455H396.452L398.855 149H398.024L396.068 143.49H396.017L394.061 149ZM394.368 146.443H397.717V147.146H394.368V146.443ZM402.866 146.993V144.091H403.62V149H402.866V148.169H402.815C402.7 148.418 402.521 148.63 402.278 148.805C402.035 148.978 401.728 149.064 401.358 149.064C401.051 149.064 400.778 148.997 400.539 148.863C400.301 148.726 400.113 148.522 399.977 148.249C399.841 147.974 399.772 147.628 399.772 147.21V144.091H400.527V147.159C400.527 147.517 400.627 147.803 400.827 148.016C401.029 148.229 401.287 148.335 401.6 148.335C401.788 148.335 401.979 148.287 402.173 148.191C402.369 148.096 402.533 147.949 402.665 147.75C402.799 147.552 402.866 147.3 402.866 146.993ZM406.983 150.943C406.619 150.943 406.306 150.896 406.044 150.803C405.782 150.711 405.563 150.589 405.389 150.438C405.216 150.289 405.079 150.129 404.976 149.959L405.577 149.537C405.645 149.626 405.732 149.729 405.836 149.844C405.94 149.961 406.083 150.062 406.264 150.147C406.448 150.235 406.687 150.278 406.983 150.278C407.38 150.278 407.707 150.183 407.965 149.991C408.222 149.799 408.351 149.499 408.351 149.089V148.092H408.287C408.232 148.182 408.153 148.293 408.051 148.425C407.951 148.555 407.806 148.671 407.616 148.773C407.429 148.873 407.175 148.923 406.856 148.923C406.459 148.923 406.103 148.83 405.788 148.642C405.475 148.455 405.227 148.182 405.043 147.824C404.862 147.466 404.772 147.031 404.772 146.52C404.772 146.017 404.86 145.579 405.037 145.206C405.214 144.831 405.46 144.542 405.775 144.337C406.091 144.13 406.455 144.027 406.868 144.027C407.188 144.027 407.441 144.08 407.629 144.187C407.819 144.291 407.964 144.411 408.064 144.545C408.166 144.677 408.245 144.786 408.3 144.871H408.377V144.091H409.106V149.141C409.106 149.562 409.01 149.906 408.818 150.17C408.628 150.436 408.373 150.631 408.051 150.755C407.731 150.88 407.375 150.943 406.983 150.943ZM406.958 148.246C407.26 148.246 407.516 148.176 407.725 148.038C407.934 147.9 408.092 147.7 408.201 147.44C408.31 147.18 408.364 146.869 408.364 146.507C408.364 146.153 408.311 145.841 408.204 145.571C408.098 145.3 407.94 145.088 407.731 144.935C407.522 144.781 407.265 144.705 406.958 144.705C406.638 144.705 406.372 144.786 406.159 144.947C405.948 145.109 405.789 145.327 405.683 145.599C405.578 145.872 405.526 146.175 405.526 146.507C405.526 146.848 405.579 147.15 405.686 147.412C405.794 147.672 405.954 147.876 406.165 148.025C406.378 148.172 406.642 148.246 406.958 148.246ZM415.306 142.455V149H414.513V143.286H414.475L412.877 144.347V143.541L414.513 142.455H415.306ZM419.272 142.365C419.541 142.367 419.809 142.418 420.078 142.518C420.346 142.619 420.591 142.785 420.813 143.017C421.034 143.247 421.212 143.561 421.346 143.96C421.481 144.358 421.548 144.858 421.548 145.459C421.548 146.04 421.492 146.557 421.381 147.009C421.273 147.458 421.115 147.838 420.908 148.147C420.704 148.456 420.455 148.69 420.161 148.85C419.869 149.01 419.538 149.089 419.17 149.089C418.803 149.089 418.476 149.017 418.189 148.872C417.903 148.725 417.669 148.522 417.486 148.262C417.304 148 417.188 147.696 417.137 147.351H417.917C417.987 147.651 418.127 147.9 418.336 148.096C418.547 148.289 418.825 148.386 419.17 148.386C419.675 148.386 420.073 148.166 420.365 147.725C420.659 147.284 420.806 146.661 420.806 145.855H420.755C420.636 146.034 420.494 146.189 420.33 146.319C420.166 146.449 419.984 146.549 419.783 146.619C419.583 146.689 419.37 146.724 419.144 146.724C418.769 146.724 418.425 146.632 418.112 146.446C417.801 146.259 417.552 146.002 417.364 145.676C417.179 145.348 417.086 144.973 417.086 144.551C417.086 144.151 417.176 143.784 417.354 143.452C417.536 143.117 417.789 142.851 418.115 142.653C418.443 142.455 418.829 142.359 419.272 142.365ZM419.272 143.068C419.004 143.068 418.762 143.135 418.547 143.27C418.334 143.402 418.164 143.581 418.038 143.806C417.915 144.03 417.853 144.278 417.853 144.551C417.853 144.824 417.913 145.072 418.032 145.296C418.153 145.517 418.319 145.694 418.527 145.826C418.738 145.956 418.978 146.021 419.247 146.021C419.449 146.021 419.638 145.982 419.812 145.903C419.987 145.822 420.139 145.712 420.269 145.574C420.401 145.433 420.505 145.275 420.579 145.098C420.654 144.919 420.691 144.732 420.691 144.538C420.691 144.283 420.629 144.043 420.506 143.819C420.384 143.596 420.216 143.414 420.001 143.276C419.788 143.137 419.545 143.068 419.272 143.068Z" fill="black" fill-opacity="0.4"/>
<path d="M468.061 149H467.23L469.634 142.455H470.452L472.855 149H472.024L470.068 143.49H470.017L468.061 149ZM468.368 146.443H471.717V147.146H468.368V146.443ZM476.866 146.993V144.091H477.62V149H476.866V148.169H476.815C476.7 148.418 476.521 148.63 476.278 148.805C476.035 148.978 475.728 149.064 475.358 149.064C475.051 149.064 474.778 148.997 474.539 148.863C474.301 148.726 474.113 148.522 473.977 148.249C473.841 147.974 473.772 147.628 473.772 147.21V144.091H474.527V147.159C474.527 147.517 474.627 147.803 474.827 148.016C475.029 148.229 475.287 148.335 475.6 148.335C475.788 148.335 475.979 148.287 476.173 148.191C476.369 148.096 476.533 147.949 476.665 147.75C476.799 147.552 476.866 147.3 476.866 146.993ZM480.983 150.943C480.619 150.943 480.306 150.896 480.044 150.803C479.782 150.711 479.563 150.589 479.389 150.438C479.216 150.289 479.079 150.129 478.976 149.959L479.577 149.537C479.645 149.626 479.732 149.729 479.836 149.844C479.94 149.961 480.083 150.062 480.264 150.147C480.448 150.235 480.687 150.278 480.983 150.278C481.38 150.278 481.707 150.183 481.965 149.991C482.222 149.799 482.351 149.499 482.351 149.089V148.092H482.287C482.232 148.182 482.153 148.293 482.051 148.425C481.951 148.555 481.806 148.671 481.616 148.773C481.429 148.873 481.175 148.923 480.856 148.923C480.459 148.923 480.103 148.83 479.788 148.642C479.475 148.455 479.227 148.182 479.043 147.824C478.862 147.466 478.772 147.031 478.772 146.52C478.772 146.017 478.86 145.579 479.037 145.206C479.214 144.831 479.46 144.542 479.775 144.337C480.091 144.13 480.455 144.027 480.868 144.027C481.188 144.027 481.441 144.08 481.629 144.187C481.819 144.291 481.964 144.411 482.064 144.545C482.166 144.677 482.245 144.786 482.3 144.871H482.377V144.091H483.106V149.141C483.106 149.562 483.01 149.906 482.818 150.17C482.628 150.436 482.373 150.631 482.051 150.755C481.731 150.88 481.375 150.943 480.983 150.943ZM480.958 148.246C481.26 148.246 481.516 148.176 481.725 148.038C481.934 147.9 482.092 147.7 482.201 147.44C482.31 147.18 482.364 146.869 482.364 146.507C482.364 146.153 482.311 145.841 482.204 145.571C482.098 145.3 481.94 145.088 481.731 144.935C481.522 144.781 481.265 144.705 480.958 144.705C480.638 144.705 480.372 144.786 480.159 144.947C479.948 145.109 479.789 145.327 479.683 145.599C479.578 145.872 479.526 146.175 479.526 146.507C479.526 146.848 479.579 147.15 479.686 147.412C479.794 147.672 479.954 147.876 480.165 148.025C480.378 148.172 480.642 148.246 480.958 148.246ZM487.005 149V148.425L489.165 146.06C489.419 145.783 489.628 145.542 489.792 145.337C489.956 145.131 490.077 144.937 490.156 144.756C490.237 144.572 490.277 144.381 490.277 144.18C490.277 143.95 490.222 143.751 490.111 143.583C490.003 143.414 489.853 143.284 489.664 143.193C489.474 143.101 489.261 143.055 489.025 143.055C488.773 143.055 488.554 143.108 488.366 143.212C488.181 143.314 488.037 143.458 487.935 143.643C487.835 143.829 487.785 144.046 487.785 144.295H487.03C487.03 143.912 487.119 143.575 487.296 143.286C487.472 142.996 487.713 142.77 488.018 142.608C488.325 142.446 488.669 142.365 489.05 142.365C489.434 142.365 489.774 142.446 490.07 142.608C490.366 142.77 490.598 142.988 490.766 143.263C490.935 143.538 491.019 143.844 491.019 144.18C491.019 144.421 490.975 144.657 490.888 144.887C490.803 145.115 490.653 145.369 490.44 145.651C490.229 145.93 489.937 146.271 489.562 146.673L488.091 148.246V148.297H491.134V149H487.005ZM494.589 149.089C494.107 149.089 493.697 148.958 493.358 148.696C493.02 148.432 492.761 148.05 492.582 147.549C492.403 147.046 492.313 146.439 492.313 145.727C492.313 145.02 492.403 144.416 492.582 143.915C492.763 143.412 493.023 143.029 493.362 142.765C493.703 142.498 494.112 142.365 494.589 142.365C495.066 142.365 495.474 142.498 495.813 142.765C496.154 143.029 496.414 143.412 496.593 143.915C496.774 144.416 496.864 145.02 496.864 145.727C496.864 146.439 496.775 147.046 496.596 147.549C496.417 148.05 496.158 148.432 495.819 148.696C495.481 148.958 495.07 149.089 494.589 149.089ZM494.589 148.386C495.066 148.386 495.437 148.156 495.701 147.696C495.965 147.236 496.097 146.58 496.097 145.727C496.097 145.161 496.037 144.678 495.915 144.279C495.796 143.881 495.623 143.577 495.397 143.369C495.174 143.16 494.904 143.055 494.589 143.055C494.116 143.055 493.746 143.289 493.48 143.755C493.214 144.22 493.08 144.877 493.08 145.727C493.08 146.294 493.14 146.776 493.259 147.172C493.379 147.568 493.55 147.87 493.774 148.076C494 148.283 494.271 148.386 494.589 148.386Z" fill="black" fill-opacity="0.4"/>
<path d="M49.6257 3.82495V126.225" stroke="black"/>
<path d="M45.0449 126.225H49.6258" stroke="black"/>
<path d="M38.4152 129.393C37.9336 129.393 37.5235 129.262 37.1847 129C36.8459 128.736 36.587 128.354 36.4081 127.853C36.2291 127.35 36.1396 126.743 36.1396 126.031C36.1396 125.324 36.2291 124.72 36.4081 124.219C36.5892 123.716 36.8491 123.333 37.1879 123.068C37.5288 122.802 37.9379 122.669 38.4152 122.669C38.8924 122.669 39.3005 122.802 39.6392 123.068C39.9801 123.333 40.2401 123.716 40.4191 124.219C40.6002 124.72 40.6907 125.324 40.6907 126.031C40.6907 126.743 40.6012 127.35 40.4223 127.853C40.2433 128.354 39.9844 128.736 39.6456 129C39.3068 129.262 38.8967 129.393 38.4152 129.393ZM38.4152 128.69C38.8924 128.69 39.2632 128.46 39.5274 128C39.7916 127.54 39.9237 126.883 39.9237 126.031C39.9237 125.464 39.863 124.982 39.7415 124.583C39.6222 124.185 39.4496 123.881 39.2238 123.673C39 123.464 38.7305 123.359 38.4152 123.359C37.9421 123.359 37.5725 123.593 37.3061 124.059C37.0398 124.524 36.9066 125.181 36.9066 126.031C36.9066 126.598 36.9663 127.079 37.0856 127.476C37.2049 127.872 37.3764 128.174 37.6002 128.38C37.826 128.587 38.0977 128.69 38.4152 128.69Z" fill="#999999"/>
<path d="M45.0449 95.625H49.6258" stroke="black"/>
<path d="M15.8464 98.6505C15.4714 98.6505 15.1337 98.5759 14.8333 98.4267C14.5329 98.2776 14.2921 98.073 14.111 97.8131C13.9299 97.5532 13.8308 97.257 13.8138 96.9246H14.5808C14.6106 97.2208 14.7449 97.4658 14.9835 97.6597C15.2243 97.8515 15.5119 97.9473 15.8464 97.9473C16.1149 97.9473 16.3535 97.8845 16.5623 97.7588C16.7733 97.6331 16.9384 97.4605 17.0577 97.241C17.1792 97.0194 17.2399 96.7691 17.2399 96.49C17.2399 96.2044 17.1771 95.9498 17.0513 95.7261C16.9278 95.5002 16.7573 95.3223 16.54 95.1924C16.3226 95.0624 16.0744 94.9963 15.7953 94.9942C15.595 94.9921 15.3894 95.023 15.1785 95.0869C14.9675 95.1487 14.7939 95.2286 14.6575 95.3266L13.916 95.2371L14.3123 92.0155H17.7129V92.7186H14.9771L14.747 94.649H14.7854C14.9196 94.5425 15.0879 94.4541 15.2903 94.3838C15.4927 94.3135 15.7037 94.2783 15.9231 94.2783C16.3237 94.2783 16.6806 94.3742 16.9938 94.5659C17.3092 94.7556 17.5563 95.0155 17.7353 95.3458C17.9164 95.676 18.007 96.0532 18.007 96.4772C18.007 96.8948 17.9132 97.2677 17.7257 97.5958C17.5403 97.9218 17.2846 98.1796 16.9587 98.3692C16.6327 98.5567 16.2619 98.6505 15.8464 98.6505ZM21.4115 98.6505C20.93 98.6505 20.5198 98.5194 20.181 98.2574C19.8423 97.9931 19.5834 97.6107 19.4044 97.11C19.2254 96.6071 19.1359 95.9999 19.1359 95.2882C19.1359 94.5809 19.2254 93.9768 19.4044 93.4761C19.5855 92.9733 19.8455 92.5897 20.1842 92.3255C20.5252 92.0592 20.9342 91.926 21.4115 91.926C21.8888 91.926 22.2968 92.0592 22.6356 92.3255C22.9765 92.5897 23.2364 92.9733 23.4154 93.4761C23.5965 93.9768 23.6871 94.5809 23.6871 95.2882C23.6871 95.9999 23.5976 96.6071 23.4186 97.11C23.2396 97.6107 22.9808 97.9931 22.642 98.2574C22.3032 98.5194 21.893 98.6505 21.4115 98.6505ZM21.4115 97.9473C21.8888 97.9473 22.2595 97.7172 22.5237 97.257C22.7879 96.7968 22.92 96.1405 22.92 95.2882C22.92 94.7215 22.8593 94.2389 22.7379 93.8404C22.6185 93.442 22.446 93.1384 22.2201 92.9296C21.9964 92.7208 21.7269 92.6164 21.4115 92.6164C20.9385 92.6164 20.5688 92.8497 20.3025 93.3163C20.0362 93.7808 19.903 94.4381 19.903 95.2882C19.903 95.855 19.9627 96.3365 20.082 96.7328C20.2013 97.1292 20.3728 97.4306 20.5965 97.6373C20.8224 97.844 21.094 97.9473 21.4115 97.9473ZM27.0365 98.6505C26.555 98.6505 26.1448 98.5194 25.806 98.2574C25.4673 97.9931 25.2084 97.6107 25.0294 97.11C24.8504 96.6071 24.7609 95.9999 24.7609 95.2882C24.7609 94.5809 24.8504 93.9768 25.0294 93.4761C25.2105 92.9733 25.4705 92.5897 25.8092 92.3255C26.1502 92.0592 26.5592 91.926 27.0365 91.926C27.5138 91.926 27.9218 92.0592 28.2606 92.3255C28.6015 92.5897 28.8614 92.9733 29.0404 93.4761C29.2215 93.9768 29.3121 94.5809 29.3121 95.2882C29.3121 95.9999 29.2226 96.6071 29.0436 97.11C28.8646 97.6107 28.6058 97.9931 28.267 98.2574C27.9282 98.5194 27.518 98.6505 27.0365 98.6505ZM27.0365 97.9473C27.5138 97.9473 27.8845 97.7172 28.1487 97.257C28.4129 96.7968 28.545 96.1405 28.545 95.2882C28.545 94.7215 28.4843 94.2389 28.3629 93.8404C28.2435 93.442 28.071 93.1384 27.8451 92.9296C27.6214 92.7208 27.3519 92.6164 27.0365 92.6164C26.5635 92.6164 26.1938 92.8497 25.9275 93.3163C25.6612 93.7808 25.528 94.4381 25.528 95.2882C25.528 95.855 25.5877 96.3365 25.707 96.7328C25.8263 97.1292 25.9978 97.4306 26.2215 97.6373C26.4474 97.844 26.719 97.9473 27.0365 97.9473ZM32.6615 98.6505C32.18 98.6505 31.7698 98.5194 31.431 98.2574C31.0923 97.9931 30.8334 97.6107 30.6544 97.11C30.4754 96.6071 30.3859 95.9999 30.3859 95.2882C30.3859 94.5809 30.4754 93.9768 30.6544 93.4761C30.8355 92.9733 31.0955 92.5897 31.4342 92.3255C31.7752 92.0592 32.1842 91.926 32.6615 91.926C33.1388 91.926 33.5468 92.0592 33.8856 92.3255C34.2265 92.5897 34.4864 92.9733 34.6654 93.4761C34.8465 93.9768 34.9371 94.5809 34.9371 95.2882C34.9371 95.9999 34.8476 96.6071 34.6686 97.11C34.4896 97.6107 34.2308 97.9931 33.892 98.2574C33.5532 98.5194 33.143 98.6505 32.6615 98.6505ZM32.6615 97.9473C33.1388 97.9473 33.5095 97.7172 33.7737 97.257C34.0379 96.7968 34.17 96.1405 34.17 95.2882C34.17 94.7215 34.1093 94.2389 33.9879 93.8404C33.8685 93.442 33.696 93.1384 33.4701 92.9296C33.2464 92.7208 32.9769 92.6164 32.6615 92.6164C32.1885 92.6164 31.8188 92.8497 31.5525 93.3163C31.2862 93.7808 31.153 94.4381 31.153 95.2882C31.153 95.855 31.2127 96.3365 31.332 96.7328C31.4513 97.1292 31.6228 97.4306 31.8465 97.6373C32.0724 97.844 32.344 97.9473 32.6615 97.9473ZM38.2865 98.6505C37.805 98.6505 37.3948 98.5194 37.056 98.2574C36.7173 97.9931 36.4584 97.6107 36.2794 97.11C36.1004 96.6071 36.0109 95.9999 36.0109 95.2882C36.0109 94.5809 36.1004 93.9768 36.2794 93.4761C36.4605 92.9733 36.7205 92.5897 37.0592 92.3255C37.4002 92.0592 37.8092 91.926 38.2865 91.926C38.7638 91.926 39.1718 92.0592 39.5106 92.3255C39.8515 92.5897 40.1114 92.9733 40.2904 93.4761C40.4715 93.9768 40.5621 94.5809 40.5621 95.2882C40.5621 95.9999 40.4726 96.6071 40.2936 97.11C40.1146 97.6107 39.8558 97.9931 39.517 98.2574C39.1782 98.5194 38.768 98.6505 38.2865 98.6505ZM38.2865 97.9473C38.7638 97.9473 39.1345 97.7172 39.3987 97.257C39.6629 96.7968 39.795 96.1405 39.795 95.2882C39.795 94.7215 39.7343 94.2389 39.6129 93.8404C39.4935 93.442 39.321 93.1384 39.0951 92.9296C38.8714 92.7208 38.6019 92.6164 38.2865 92.6164C37.8135 92.6164 37.4438 92.8497 37.1775 93.3163C36.9112 93.7808 36.778 94.4381 36.778 95.2882C36.778 95.855 36.8377 96.3365 36.957 96.7328C37.0763 97.1292 37.2478 97.4306 37.4715 97.6373C37.6974 97.844 37.969 97.9473 38.2865 97.9473Z" fill="#999999"/>
<path d="M45.0449 65.025H49.6258" stroke="black"/>
<path d="M11.7691 61.229V67.7744H10.9765V62.0599H10.9381L9.34014 63.121V62.3156L10.9765 61.229H11.7691ZM15.7865 67.8639C15.305 67.8639 14.8948 67.7329 14.556 67.4708C14.2173 67.2066 13.9584 66.8241 13.7794 66.3234C13.6004 65.8206 13.5109 65.2133 13.5109 64.5017C13.5109 63.7943 13.6004 63.1903 13.7794 62.6895C13.9605 62.1867 14.2205 61.8032 14.5592 61.539C14.9002 61.2726 15.3092 61.1395 15.7865 61.1395C16.2638 61.1395 16.6718 61.2726 17.0106 61.539C17.3515 61.8032 17.6114 62.1867 17.7904 62.6895C17.9715 63.1903 18.0621 63.7943 18.0621 64.5017C18.0621 65.2133 17.9726 65.8206 17.7936 66.3234C17.6146 66.8241 17.3558 67.2066 17.017 67.4708C16.6782 67.7329 16.268 67.8639 15.7865 67.8639ZM15.7865 67.1608C16.2638 67.1608 16.6345 66.9307 16.8987 66.4704C17.1629 66.0102 17.295 65.354 17.295 64.5017C17.295 63.9349 17.2343 63.4523 17.1129 63.0539C16.9935 62.6555 16.821 62.3518 16.5951 62.143C16.3714 61.9342 16.1019 61.8298 15.7865 61.8298C15.3135 61.8298 14.9438 62.0631 14.6775 62.5297C14.4112 62.9942 14.278 63.6515 14.278 64.5017C14.278 65.0684 14.3377 65.55 14.457 65.9463C14.5763 66.3426 14.7478 66.6441 14.9715 66.8508C15.1974 67.0574 15.469 67.1608 15.7865 67.1608ZM21.4115 67.8639C20.93 67.8639 20.5198 67.7329 20.181 67.4708C19.8423 67.2066 19.5834 66.8241 19.4044 66.3234C19.2254 65.8206 19.1359 65.2133 19.1359 64.5017C19.1359 63.7943 19.2254 63.1903 19.4044 62.6895C19.5855 62.1867 19.8455 61.8032 20.1842 61.539C20.5252 61.2726 20.9342 61.1395 21.4115 61.1395C21.8888 61.1395 22.2968 61.2726 22.6356 61.539C22.9765 61.8032 23.2364 62.1867 23.4154 62.6895C23.5965 63.1903 23.6871 63.7943 23.6871 64.5017C23.6871 65.2133 23.5976 65.8206 23.4186 66.3234C23.2396 66.8241 22.9808 67.2066 22.642 67.4708C22.3032 67.7329 21.893 67.8639 21.4115 67.8639ZM21.4115 67.1608C21.8888 67.1608 22.2595 66.9307 22.5237 66.4704C22.7879 66.0102 22.92 65.354 22.92 64.5017C22.92 63.9349 22.8593 63.4523 22.7379 63.0539C22.6185 62.6555 22.446 62.3518 22.2201 62.143C21.9964 61.9342 21.7269 61.8298 21.4115 61.8298C20.9385 61.8298 20.5688 62.0631 20.3025 62.5297C20.0362 62.9942 19.903 63.6515 19.903 64.5017C19.903 65.0684 19.9627 65.55 20.082 65.9463C20.2013 66.3426 20.3728 66.6441 20.5965 66.8508C20.8224 67.0574 21.094 67.1608 21.4115 67.1608ZM27.0365 67.8639C26.555 67.8639 26.1448 67.7329 25.806 67.4708C25.4673 67.2066 25.2084 66.8241 25.0294 66.3234C24.8504 65.8206 24.7609 65.2133 24.7609 64.5017C24.7609 63.7943 24.8504 63.1903 25.0294 62.6895C25.2105 62.1867 25.4705 61.8032 25.8092 61.539C26.1502 61.2726 26.5592 61.1395 27.0365 61.1395C27.5138 61.1395 27.9218 61.2726 28.2606 61.539C28.6015 61.8032 28.8614 62.1867 29.0404 62.6895C29.2215 63.1903 29.3121 63.7943 29.3121 64.5017C29.3121 65.2133 29.2226 65.8206 29.0436 66.3234C28.8646 66.8241 28.6058 67.2066 28.267 67.4708C27.9282 67.7329 27.518 67.8639 27.0365 67.8639ZM27.0365 67.1608C27.5138 67.1608 27.8845 66.9307 28.1487 66.4704C28.4129 66.0102 28.545 65.354 28.545 64.5017C28.545 63.9349 28.4843 63.4523 28.3629 63.0539C28.2435 62.6555 28.071 62.3518 27.8451 62.143C27.6214 61.9342 27.3519 61.8298 27.0365 61.8298C26.5635 61.8298 26.1938 62.0631 25.9275 62.5297C25.6612 62.9942 25.528 63.6515 25.528 64.5017C25.528 65.0684 25.5877 65.55 25.707 65.9463C25.8263 66.3426 25.9978 66.6441 26.2215 66.8508C26.4474 67.0574 26.719 67.1608 27.0365 67.1608ZM32.6615 67.8639C32.18 67.8639 31.7698 67.7329 31.431 67.4708C31.0923 67.2066 30.8334 66.8241 30.6544 66.3234C30.4754 65.8206 30.3859 65.2133 30.3859 64.5017C30.3859 63.7943 30.4754 63.1903 30.6544 62.6895C30.8355 62.1867 31.0955 61.8032 31.4342 61.539C31.7752 61.2726 32.1842 61.1395 32.6615 61.1395C33.1388 61.1395 33.5468 61.2726 33.8856 61.539C34.2265 61.8032 34.4864 62.1867 34.6654 62.6895C34.8465 63.1903 34.9371 63.7943 34.9371 64.5017C34.9371 65.2133 34.8476 65.8206 34.6686 66.3234C34.4896 66.8241 34.2308 67.2066 33.892 67.4708C33.5532 67.7329 33.143 67.8639 32.6615 67.8639ZM32.6615 67.1608C33.1388 67.1608 33.5095 66.9307 33.7737 66.4704C34.0379 66.0102 34.17 65.354 34.17 64.5017C34.17 63.9349 34.1093 63.4523 33.9879 63.0539C33.8685 62.6555 33.696 62.3518 33.4701 62.143C33.2464 61.9342 32.9769 61.8298 32.6615 61.8298C32.1885 61.8298 31.8188 62.0631 31.5525 62.5297C31.2862 62.9942 31.153 63.6515 31.153 64.5017C31.153 65.0684 31.2127 65.55 31.332 65.9463C31.4513 66.3426 31.6228 66.6441 31.8465 66.8508C32.0724 67.0574 32.344 67.1608 32.6615 67.1608ZM38.2865 67.8639C37.805 67.8639 37.3948 67.7329 37.056 67.4708C36.7173 67.2066 36.4584 66.8241 36.2794 66.3234C36.1004 65.8206 36.0109 65.2133 36.0109 64.5017C36.0109 63.7943 36.1004 63.1903 36.2794 62.6895C36.4605 62.1867 36.7205 61.8032 37.0592 61.539C37.4002 61.2726 37.8092 61.1395 38.2865 61.1395C38.7638 61.1395 39.1718 61.2726 39.5106 61.539C39.8515 61.8032 40.1114 62.1867 40.2904 62.6895C40.4715 63.1903 40.5621 63.7943 40.5621 64.5017C40.5621 65.2133 40.4726 65.8206 40.2936 66.3234C40.1146 66.8241 39.8558 67.2066 39.517 67.4708C39.1782 67.7329 38.768 67.8639 38.2865 67.8639ZM38.2865 67.1608C38.7638 67.1608 39.1345 66.9307 39.3987 66.4704C39.6629 66.0102 39.795 65.354 39.795 64.5017C39.795 63.9349 39.7343 63.4523 39.6129 63.0539C39.4935 62.6555 39.321 62.3518 39.0951 62.143C38.8714 61.9342 38.6019 61.8298 38.2865 61.8298C37.8135 61.8298 37.4438 62.0631 37.1775 62.5297C36.9112 62.9942 36.778 63.6515 36.778 64.5017C36.778 65.0684 36.8377 65.55 36.957 65.9463C37.0763 66.3426 37.2478 66.6441 37.4715 66.8508C37.6974 67.0574 37.969 67.1608 38.2865 67.1608Z" fill="#999999"/>
<path d="M45.0449 34.4249H49.6258" stroke="black"/>
<path d="M8.20235 37.9207V37.3454L10.3629 34.9804C10.6164 34.7034 10.8252 34.4626 10.9893 34.2581C11.1533 34.0514 11.2748 33.8575 11.3536 33.6764C11.4346 33.4932 11.4751 33.3014 11.4751 33.1011C11.4751 32.871 11.4197 32.6718 11.3089 32.5035C11.2002 32.3351 11.0511 32.2052 10.8614 32.1135C10.6718 32.0219 10.4587 31.9761 10.2222 31.9761C9.97082 31.9761 9.75136 32.0283 9.56386 32.1327C9.37849 32.235 9.23467 32.3788 9.1324 32.5642C9.03225 32.7496 8.98218 32.9669 8.98218 33.2162H8.22792C8.22792 32.8326 8.31634 32.496 8.49319 32.2062C8.67004 31.9165 8.9108 31.6906 9.21549 31.5287C9.52231 31.3667 9.86641 31.2858 10.2478 31.2858C10.6313 31.2858 10.9712 31.3667 11.2673 31.5287C11.5635 31.6906 11.7957 31.909 11.9641 32.1839C12.1324 32.4587 12.2166 32.7645 12.2166 33.1011C12.2166 33.3419 12.1729 33.5773 12.0855 33.8074C12.0003 34.0354 11.8511 34.29 11.6381 34.5713C11.4271 34.8504 11.1342 35.1913 10.7592 35.594L9.289 37.1665V37.2176H12.3316V37.9207H8.20235ZM15.7865 38.0102C15.305 38.0102 14.8948 37.8792 14.556 37.6171C14.2173 37.3529 13.9584 36.9704 13.7794 36.4697C13.6004 35.9669 13.5109 35.3596 13.5109 34.648C13.5109 33.9406 13.6004 33.3366 13.7794 32.8358C13.9605 32.333 14.2205 31.9495 14.5592 31.6853C14.9002 31.4189 15.3092 31.2858 15.7865 31.2858C16.2638 31.2858 16.6718 31.4189 17.0106 31.6853C17.3515 31.9495 17.6114 32.333 17.7904 32.8358C17.9715 33.3366 18.0621 33.9406 18.0621 34.648C18.0621 35.3596 17.9726 35.9669 17.7936 36.4697C17.6146 36.9704 17.3558 37.3529 17.017 37.6171C16.6782 37.8792 16.268 38.0102 15.7865 38.0102ZM15.7865 37.3071C16.2638 37.3071 16.6345 37.077 16.8987 36.6167C17.1629 36.1565 17.295 35.5003 17.295 34.648C17.295 34.0812 17.2343 33.5986 17.1129 33.2002C16.9935 32.8018 16.821 32.4981 16.5951 32.2893C16.3714 32.0805 16.1019 31.9761 15.7865 31.9761C15.3135 31.9761 14.9438 32.2094 14.6775 32.676C14.4112 33.1405 14.278 33.7978 14.278 34.648C14.278 35.2147 14.3377 35.6963 14.457 36.0926C14.5763 36.4889 14.7478 36.7904 14.9715 36.9971C15.1974 37.2037 15.469 37.3071 15.7865 37.3071ZM21.4115 38.0102C20.93 38.0102 20.5198 37.8792 20.181 37.6171C19.8423 37.3529 19.5834 36.9704 19.4044 36.4697C19.2254 35.9669 19.1359 35.3596 19.1359 34.648C19.1359 33.9406 19.2254 33.3366 19.4044 32.8358C19.5855 32.333 19.8455 31.9495 20.1842 31.6853C20.5252 31.4189 20.9342 31.2858 21.4115 31.2858C21.8888 31.2858 22.2968 31.4189 22.6356 31.6853C22.9765 31.9495 23.2364 32.333 23.4154 32.8358C23.5965 33.3366 23.6871 33.9406 23.6871 34.648C23.6871 35.3596 23.5976 35.9669 23.4186 36.4697C23.2396 36.9704 22.9808 37.3529 22.642 37.6171C22.3032 37.8792 21.893 38.0102 21.4115 38.0102ZM21.4115 37.3071C21.8888 37.3071 22.2595 37.077 22.5237 36.6167C22.7879 36.1565 22.92 35.5003 22.92 34.648C22.92 34.0812 22.8593 33.5986 22.7379 33.2002C22.6185 32.8018 22.446 32.4981 22.2201 32.2893C21.9964 32.0805 21.7269 31.9761 21.4115 31.9761C20.9385 31.9761 20.5688 32.2094 20.3025 32.676C20.0362 33.1405 19.903 33.7978 19.903 34.648C19.903 35.2147 19.9627 35.6963 20.082 36.0926C20.2013 36.4889 20.3728 36.7904 20.5965 36.9971C20.8224 37.2037 21.094 37.3071 21.4115 37.3071ZM27.0365 38.0102C26.555 38.0102 26.1448 37.8792 25.806 37.6171C25.4673 37.3529 25.2084 36.9704 25.0294 36.4697C24.8504 35.9669 24.7609 35.3596 24.7609 34.648C24.7609 33.9406 24.8504 33.3366 25.0294 32.8358C25.2105 32.333 25.4705 31.9495 25.8092 31.6853C26.1502 31.4189 26.5592 31.2858 27.0365 31.2858C27.5138 31.2858 27.9218 31.4189 28.2606 31.6853C28.6015 31.9495 28.8614 32.333 29.0404 32.8358C29.2215 33.3366 29.3121 33.9406 29.3121 34.648C29.3121 35.3596 29.2226 35.9669 29.0436 36.4697C28.8646 36.9704 28.6058 37.3529 28.267 37.6171C27.9282 37.8792 27.518 38.0102 27.0365 38.0102ZM27.0365 37.3071C27.5138 37.3071 27.8845 37.077 28.1487 36.6167C28.4129 36.1565 28.545 35.5003 28.545 34.648C28.545 34.0812 28.4843 33.5986 28.3629 33.2002C28.2435 32.8018 28.071 32.4981 27.8451 32.2893C27.6214 32.0805 27.3519 31.9761 27.0365 31.9761C26.5635 31.9761 26.1938 32.2094 25.9275 32.676C25.6612 33.1405 25.528 33.7978 25.528 34.648C25.528 35.2147 25.5877 35.6963 25.707 36.0926C25.8263 36.4889 25.9978 36.7904 26.2215 36.9971C26.4474 37.2037 26.719 37.3071 27.0365 37.3071ZM32.6615 38.0102C32.18 38.0102 31.7698 37.8792 31.431 37.6171C31.0923 37.3529 30.8334 36.9704 30.6544 36.4697C30.4754 35.9669 30.3859 35.3596 30.3859 34.648C30.3859 33.9406 30.4754 33.3366 30.6544 32.8358C30.8355 32.333 31.0955 31.9495 31.4342 31.6853C31.7752 31.4189 32.1842 31.2858 32.6615 31.2858C33.1388 31.2858 33.5468 31.4189 33.8856 31.6853C34.2265 31.9495 34.4864 32.333 34.6654 32.8358C34.8465 33.3366 34.9371 33.9406 34.9371 34.648C34.9371 35.3596 34.8476 35.9669 34.6686 36.4697C34.4896 36.9704 34.2308 37.3529 33.892 37.6171C33.5532 37.8792 33.143 38.0102 32.6615 38.0102ZM32.6615 37.3071C33.1388 37.3071 33.5095 37.077 33.7737 36.6167C34.0379 36.1565 34.17 35.5003 34.17 34.648C34.17 34.0812 34.1093 33.5986 33.9879 33.2002C33.8685 32.8018 33.696 32.4981 33.4701 32.2893C33.2464 32.0805 32.9769 31.9761 32.6615 31.9761C32.1885 31.9761 31.8188 32.2094 31.5525 32.676C31.2862 33.1405 31.153 33.7978 31.153 34.648C31.153 35.2147 31.2127 35.6963 31.332 36.0926C31.4513 36.4889 31.6228 36.7904 31.8465 36.9971C32.0724 37.2037 32.344 37.3071 32.6615 37.3071ZM38.2865 38.0102C37.805 38.0102 37.3948 37.8792 37.056 37.6171C36.7173 37.3529 36.4584 36.9704 36.2794 36.4697C36.1004 35.9669 36.0109 35.3596 36.0109 34.648C36.0109 33.9406 36.1004 33.3366 36.2794 32.8358C36.4605 32.333 36.7205 31.9495 37.0592 31.6853C37.4002 31.4189 37.8092 31.2858 38.2865 31.2858C38.7638 31.2858 39.1718 31.4189 39.5106 31.6853C39.8515 31.9495 40.1114 32.333 40.2904 32.8358C40.4715 33.3366 40.5621 33.9406 40.5621 34.648C40.5621 35.3596 40.4726 35.9669 40.2936 36.4697C40.1146 36.9704 39.8558 37.3529 39.517 37.6171C39.1782 37.8792 38.768 38.0102 38.2865 38.0102ZM38.2865 37.3071C38.7638 37.3071 39.1345 37.077 39.3987 36.6167C39.6629 36.1565 39.795 35.5003 39.795 34.648C39.795 34.0812 39.7343 33.5986 39.6129 33.2002C39.4935 32.8018 39.321 32.4981 39.0951 32.2893C38.8714 32.0805 38.6019 31.9761 38.2865 31.9761C37.8135 31.9761 37.4438 32.2094 37.1775 32.676C36.9112 33.1405 36.778 33.7978 36.778 34.648C36.778 35.2147 36.8377 35.6963 36.957 36.0926C37.0763 36.4889 37.2478 36.7904 37.4715 36.9971C37.6974 37.2037 37.969 37.3071 38.2865 37.3071Z" fill="#999999"/>
<path d="M45.0449 3.82495H49.6258" stroke="black"/>
<path d="M10.1328 10.0224C9.71088 10.0224 9.33481 9.94997 9.00455 9.80508C8.67643 9.6602 8.41542 9.45885 8.22153 9.20103C8.02977 8.94109 7.92536 8.6396 7.90832 8.29656H8.71372C8.73076 8.5075 8.8032 8.68967 8.93105 8.84308C9.05889 8.99436 9.22615 9.11154 9.43282 9.19464C9.6395 9.27774 9.86855 9.31929 10.12 9.31929C10.4012 9.31929 10.6505 9.27028 10.8678 9.17227C11.0852 9.07426 11.2556 8.93789 11.3792 8.76318C11.5028 8.58846 11.5646 8.38605 11.5646 8.15593C11.5646 7.91517 11.5049 7.70316 11.3856 7.51993C11.2663 7.33456 11.0916 7.18967 10.8614 7.08527C10.6313 6.98086 10.3501 6.92866 10.0177 6.92866H9.49355V6.22554H10.0177C10.2776 6.22554 10.5056 6.17866 10.7016 6.08491C10.8998 5.99116 11.0543 5.85906 11.1651 5.6886C11.278 5.51815 11.3345 5.31787 11.3345 5.08775C11.3345 4.86616 11.2854 4.67333 11.1874 4.50927C11.0894 4.34521 10.9509 4.21737 10.772 4.12575C10.5951 4.03413 10.3863 3.98832 10.1455 3.98832C9.91968 3.98832 9.70661 4.02987 9.50633 4.11296C9.30818 4.19393 9.14624 4.31218 9.02053 4.46772C8.89482 4.62113 8.82664 4.8065 8.81599 5.02383H8.04894C8.06173 4.68079 8.16507 4.38037 8.35896 4.12255C8.55285 3.86261 8.8064 3.66019 9.11961 3.51531C9.43495 3.37042 9.78119 3.29798 10.1583 3.29798C10.5631 3.29798 10.9104 3.38001 11.2002 3.54407C11.49 3.706 11.7127 3.92014 11.8682 4.18647C12.0237 4.45281 12.1015 4.74045 12.1015 5.0494C12.1015 5.41801 12.0046 5.73228 11.8107 5.99223C11.6189 6.25217 11.3579 6.43221 11.0276 6.53235V6.58349C11.441 6.65167 11.7638 6.82745 11.996 7.11083C12.2283 7.39208 12.3444 7.74045 12.3444 8.15593C12.3444 8.51176 12.2475 8.83136 12.0536 9.11474C11.8618 9.39599 11.5997 9.61758 11.2673 9.77951C10.935 9.94145 10.5568 10.0224 10.1328 10.0224ZM15.7865 10.0224C15.305 10.0224 14.8948 9.89137 14.556 9.6293C14.2173 9.3651 13.9584 8.98264 13.7794 8.48193C13.6004 7.97909 13.5109 7.37184 13.5109 6.66019C13.5109 5.95281 13.6004 5.34876 13.7794 4.84805C13.9605 4.34521 14.2205 3.96169 14.5592 3.69748C14.9002 3.43115 15.3092 3.29798 15.7865 3.29798C16.2638 3.29798 16.6718 3.43115 17.0106 3.69748C17.3515 3.96169 17.6114 4.34521 17.7904 4.84805C17.9715 5.34876 18.0621 5.95281 18.0621 6.66019C18.0621 7.37184 17.9726 7.97909 17.7936 8.48193C17.6146 8.98264 17.3558 9.3651 17.017 9.6293C16.6782 9.89137 16.268 10.0224 15.7865 10.0224ZM15.7865 9.31929C16.2638 9.31929 16.6345 9.08917 16.8987 8.62894C17.1629 8.16872 17.295 7.51247 17.295 6.66019C17.295 6.09343 17.2343 5.61083 17.1129 5.2124C16.9935 4.81396 16.821 4.51034 16.5951 4.30153C16.3714 4.09272 16.1019 3.98832 15.7865 3.98832C15.3135 3.98832 14.9438 4.22163 14.6775 4.68825C14.4112 5.15274 14.278 5.81005 14.278 6.66019C14.278 7.22696 14.3377 7.70849 14.457 8.1048C14.5763 8.5011 14.7478 8.8026 14.9715 9.00927C15.1974 9.21595 15.469 9.31929 15.7865 9.31929ZM21.4115 10.0224C20.93 10.0224 20.5198 9.89137 20.181 9.6293C19.8423 9.3651 19.5834 8.98264 19.4044 8.48193C19.2254 7.97909 19.1359 7.37184 19.1359 6.66019C19.1359 5.95281 19.2254 5.34876 19.4044 4.84805C19.5855 4.34521 19.8455 3.96169 20.1842 3.69748C20.5252 3.43115 20.9342 3.29798 21.4115 3.29798C21.8888 3.29798 22.2968 3.43115 22.6356 3.69748C22.9765 3.96169 23.2364 4.34521 23.4154 4.84805C23.5965 5.34876 23.6871 5.95281 23.6871 6.66019C23.6871 7.37184 23.5976 7.97909 23.4186 8.48193C23.2396 8.98264 22.9808 9.3651 22.642 9.6293C22.3032 9.89137 21.893 10.0224 21.4115 10.0224ZM21.4115 9.31929C21.8888 9.31929 22.2595 9.08917 22.5237 8.62894C22.7879 8.16872 22.92 7.51247 22.92 6.66019C22.92 6.09343 22.8593 5.61083 22.7379 5.2124C22.6185 4.81396 22.446 4.51034 22.2201 4.30153C21.9964 4.09272 21.7269 3.98832 21.4115 3.98832C20.9385 3.98832 20.5688 4.22163 20.3025 4.68825C20.0362 5.15274 19.903 5.81005 19.903 6.66019C19.903 7.22696 19.9627 7.70849 20.082 8.1048C20.2013 8.5011 20.3728 8.8026 20.5965 9.00927C20.8224 9.21595 21.094 9.31929 21.4115 9.31929ZM27.0365 10.0224C26.555 10.0224 26.1448 9.89137 25.806 9.6293C25.4673 9.3651 25.2084 8.98264 25.0294 8.48193C24.8504 7.97909 24.7609 7.37184 24.7609 6.66019C24.7609 5.95281 24.8504 5.34876 25.0294 4.84805C25.2105 4.34521 25.4705 3.96169 25.8092 3.69748C26.1502 3.43115 26.5592 3.29798 27.0365 3.29798C27.5138 3.29798 27.9218 3.43115 28.2606 3.69748C28.6015 3.96169 28.8614 4.34521 29.0404 4.84805C29.2215 5.34876 29.3121 5.95281 29.3121 6.66019C29.3121 7.37184 29.2226 7.97909 29.0436 8.48193C28.8646 8.98264 28.6058 9.3651 28.267 9.6293C27.9282 9.89137 27.518 10.0224 27.0365 10.0224ZM27.0365 9.31929C27.5138 9.31929 27.8845 9.08917 28.1487 8.62894C28.4129 8.16872 28.545 7.51247 28.545 6.66019C28.545 6.09343 28.4843 5.61083 28.3629 5.2124C28.2435 4.81396 28.071 4.51034 27.8451 4.30153C27.6214 4.09272 27.3519 3.98832 27.0365 3.98832C26.5635 3.98832 26.1938 4.22163 25.9275 4.68825C25.6612 5.15274 25.528 5.81005 25.528 6.66019C25.528 7.22696 25.5877 7.70849 25.707 8.1048C25.8263 8.5011 25.9978 8.8026 26.2215 9.00927C26.4474 9.21595 26.719 9.31929 27.0365 9.31929ZM32.6615 10.0224C32.18 10.0224 31.7698 9.89137 31.431 9.6293C31.0923 9.3651 30.8334 8.98264 30.6544 8.48193C30.4754 7.97909 30.3859 7.37184 30.3859 6.66019C30.3859 5.95281 30.4754 5.34876 30.6544 4.84805C30.8355 4.34521 31.0955 3.96169 31.4342 3.69748C31.7752 3.43115 32.1842 3.29798 32.6615 3.29798C33.1388 3.29798 33.5468 3.43115 33.8856 3.69748C34.2265 3.96169 34.4864 4.34521 34.6654 4.84805C34.8465 5.34876 34.9371 5.95281 34.9371 6.66019C34.9371 7.37184 34.8476 7.97909 34.6686 8.48193C34.4896 8.98264 34.2308 9.3651 33.892 9.6293C33.5532 9.89137 33.143 10.0224 32.6615 10.0224ZM32.6615 9.31929C33.1388 9.31929 33.5095 9.08917 33.7737 8.62894C34.0379 8.16872 34.17 7.51247 34.17 6.66019C34.17 6.09343 34.1093 5.61083 33.9879 5.2124C33.8685 4.81396 33.696 4.51034 33.4701 4.30153C33.2464 4.09272 32.9769 3.98832 32.6615 3.98832C32.1885 3.98832 31.8188 4.22163 31.5525 4.68825C31.2862 5.15274 31.153 5.81005 31.153 6.66019C31.153 7.22696 31.2127 7.70849 31.332 8.1048C31.4513 8.5011 31.6228 8.8026 31.8465 9.00927C32.0724 9.21595 32.344 9.31929 32.6615 9.31929ZM38.2865 10.0224C37.805 10.0224 37.3948 9.89137 37.056 9.6293C36.7173 9.3651 36.4584 8.98264 36.2794 8.48193C36.1004 7.97909 36.0109 7.37184 36.0109 6.66019C36.0109 5.95281 36.1004 5.34876 36.2794 4.84805C36.4605 4.34521 36.7205 3.96169 37.0592 3.69748C37.4002 3.43115 37.8092 3.29798 38.2865 3.29798C38.7638 3.29798 39.1718 3.43115 39.5106 3.69748C39.8515 3.96169 40.1114 4.34521 40.2904 4.84805C40.4715 5.34876 40.5621 5.95281 40.5621 6.66019C40.5621 7.37184 40.4726 7.97909 40.2936 8.48193C40.1146 8.98264 39.8558 9.3651 39.517 9.6293C39.1782 9.89137 38.768 10.0224 38.2865 10.0224ZM38.2865 9.31929C38.7638 9.31929 39.1345 9.08917 39.3987 8.62894C39.6629 8.16872 39.795 7.51247 39.795 6.66019C39.795 6.09343 39.7343 5.61083 39.6129 5.2124C39.4935 4.81396 39.321 4.51034 39.0951 4.30153C38.8714 4.09272 38.6019 3.98832 38.2865 3.98832C37.8135 3.98832 37.4438 4.22163 37.1775 4.68825C36.9112 5.15274 36.778 5.81005 36.778 6.66019C36.778 7.22696 36.8377 7.70849 36.957 8.1048C37.0763 8.5011 37.2478 8.8026 37.4715 9.00927C37.6974 9.21595 37.969 9.31929 38.2865 9.31929Z" fill="#999999"/>
<path d="M49.6257 126.225H506.183" stroke="#CCCCCC" stroke-opacity="0.24"/>
<path d="M49.6257 95.625H506.183" stroke="#CCCCCC" stroke-opacity="0.24"/>
<path d="M49.6257 65.025H506.183" stroke="#CCCCCC" stroke-opacity="0.24"/>
<path d="M49.6257 34.425H506.183" stroke="#CCCCCC" stroke-opacity="0.24"/>
<path d="M49.6257 3.82501H506.183" stroke="#CCCCCC" stroke-opacity="0.24"/>
<path d="M82.2368 3.82501V126.225" stroke="#CCCCCC" stroke-opacity="0.24"/>
<path d="M147.459 3.82501V126.225" stroke="#CCCCCC" stroke-opacity="0.24"/>
<path d="M212.682 3.82501V126.225" stroke="#CCCCCC" stroke-opacity="0.24"/>
<path d="M277.904 3.82501V126.225" stroke="#CCCCCC" stroke-opacity="0.24"/>
<path d="M343.126 3.82501V126.225" stroke="#CCCCCC" stroke-opacity="0.24"/>
<path d="M408.349 3.82501V126.225" stroke="#CCCCCC" stroke-opacity="0.24"/>
<path d="M473.572 3.82501V126.225" stroke="#CCCCCC" stroke-opacity="0.24"/>
<path d="M49.6257 3.82501V126.225" stroke="#CCCCCC" stroke-opacity="0.24"/>
<path d="M506.183 3.82501V126.225" stroke="#CCCCCC" stroke-opacity="0.24"/>
<path d="M63 29H101V126.716H63V29Z" fill="#36B7FF"/>
<path d="M129 48H167V126H129V48Z" fill="#36B7FF"/>
<path d="M194 22H232V126H194V22Z" fill="#90E182" fill-opacity="0.75"/>
<path d="M258 107.865H296V126.225H258V107.865Z" fill="#36B7FF"/>
<path d="M323 48.5122H361V126.225H323V48.5122Z" fill="#36B7FF"/>
<path d="M390 92.9322H428V126.225H390V92.9322Z" fill="#36B7FF"/>
<path d="M455 46H493V126.232H455V46Z" fill="#36B7FF"/>
<path d="M101 30C101 25.2261 98.9982 20.6477 95.435 17.2721C91.8718 13.8964 87.0391 12 82 12C76.9609 12 72.1282 13.8964 68.565 17.2721C65.0018 20.6477 63 25.2261 63 30L82 30H101Z" fill="#36B7FF"/>
<path d="M167 48C167 43.2261 164.998 38.6477 161.435 35.2721C157.872 31.8964 153.039 30 148 30C142.961 30 138.128 31.8964 134.565 35.2721C131.002 38.6477 129 43.2261 129 48L148 48H167Z" fill="#36B7FF"/>
<path d="M232 22C232 17.2261 229.998 12.6477 226.435 9.27208C222.872 5.89642 218.039 4 213 4C207.961 4 203.128 5.89642 199.565 9.27208C196.002 12.6477 194 17.2261 194 22L213 22H232Z" fill="#90E182"/>
<path d="M296 108C296 103.226 293.998 98.6477 290.435 95.2721C286.872 91.8964 282.039 90 277 90C271.961 90 267.128 91.8964 263.565 95.2721C260.002 98.6477 258 103.226 258 108L277 108H296Z" fill="#36B7FF"/>
<path d="M361 49C361 44.2261 358.998 39.6477 355.435 36.2721C351.872 32.8964 347.039 31 342 31C336.961 31 332.128 32.8964 328.565 36.2721C325.002 39.6477 323 44.2261 323 49L342 49H361Z" fill="#36B7FF"/>
<path d="M428 93C428 88.2261 425.998 83.6477 422.435 80.2721C418.872 76.8964 414.039 75 409 75C403.961 75 399.128 76.8964 395.565 80.2721C392.002 83.6477 390 88.2261 390 93L409 93H428Z" fill="#36B7FF"/>
<path d="M493 46C493 41.2261 490.998 36.6477 487.435 33.2721C483.872 29.8964 479.039 28 474 28C468.961 28 464.128 29.8964 460.565 33.2721C457.002 36.6477 455 41.2261 455 46L474 46H493Z" fill="#36B7FF"/>
</svg>
