<svg xmlns="http://www.w3.org/2000/svg" viewBox="0 0 32 40" x="0px" y="0px"><title>naira, nigeria, currency, money, coin</title><g data-name="Layer 2"><polygon points="13 13.303 13 14 13.465 14 13 13.303"/><polygon points="19 18.697 19 18 18.535 18 19 18.697"/><polygon points="13 15 13 17 15.465 17 14.132 15 13 15"/><polygon points="17.868 17 19 17 19 15 16.535 15 17.868 17"/><path d="M16,2A14,14,0,1,0,30,16,14.015,14.015,0,0,0,16,2Zm7,15a.5.5,0,0,1,0,1H21v4a1,1,0,0,1-1.832.555L16.132,18H13v4a1,1,0,0,1-2,0V18H9a.5.5,0,0,1,0-1h2V15H9a.5.5,0,0,1,0-1h2V10a1,1,0,0,1,1.832-.555L15.868,14H19V10a1,1,0,0,1,2,0v4h2a.5.5,0,0,1,0,1H21v2Z"/></g><text x="0" y="47" fill="#000000" font-size="5px" font-weight="bold" font-family="'Helvetica Neue', Helvetica, Arial-Unicode, Arial, Sans-serif">Created by Saepul Nahwan</text><text x="0" y="52" fill="#000000" font-size="5px" font-weight="bold" font-family="'Helvetica Neue', Helvetica, Arial-Unicode, Arial, Sans-serif">from the Noun Project</text></svg>