<svg width="18" height="18" viewBox="0 0 18 18" fill="none" xmlns="http://www.w3.org/2000/svg">
<circle cx="9" cy="9" r="9" fill="#FF3D3D"/>
<path d="M9.17472 13.0994C8.70123 13.0994 8.27746 13.0107 7.90341 12.8331C7.52936 12.6532 7.23224 12.407 7.01207 12.0945C6.79427 11.782 6.67827 11.4245 6.66406 11.022H7.94247C7.96615 11.3203 8.09517 11.5642 8.32955 11.7536C8.56392 11.9406 8.84564 12.0341 9.17472 12.0341C9.43277 12.0341 9.66241 11.9749 9.86364 11.8565C10.0649 11.7382 10.2235 11.5736 10.3395 11.3629C10.4555 11.1522 10.5123 10.9119 10.5099 10.642C10.5123 10.3674 10.4543 10.1236 10.3359 9.91051C10.2176 9.69744 10.0554 9.53054 9.84943 9.4098C9.64347 9.28669 9.40672 9.22514 9.1392 9.22514C8.9214 9.22277 8.70715 9.26302 8.49645 9.34588C8.28575 9.42874 8.11884 9.53764 7.99574 9.67259L6.80611 9.47727L7.18608 5.72727H11.4048V6.82812H8.27628L8.06676 8.75639H8.10938C8.24432 8.59777 8.4349 8.46638 8.68111 8.36222C8.92732 8.25568 9.19721 8.20241 9.49077 8.20241C9.93111 8.20241 10.3241 8.30658 10.6697 8.51491C11.0154 8.72088 11.2876 9.00497 11.4865 9.36719C11.6854 9.7294 11.7848 10.1437 11.7848 10.6101C11.7848 11.0907 11.6735 11.5192 11.451 11.8956C11.2308 12.2696 10.9242 12.5644 10.5312 12.7798C10.1406 12.9929 9.68845 13.0994 9.17472 13.0994Z" fill="white"/>
</svg>
