<svg width="57" height="56" viewBox="0 0 57 56" fill="none" xmlns="http://www.w3.org/2000/svg">
<circle cx="28.303" cy="27.9742" r="27.9742" fill="black"/>
<path fill-rule="evenodd" clip-rule="evenodd" d="M25.1632 38.7737C25.3077 38.7737 25.4249 38.6566 25.4249 38.512C25.4249 38.3675 25.3077 38.2504 25.1632 38.2504C25.0187 38.2504 24.9015 38.3675 24.9015 38.512C24.9015 38.6566 25.0187 38.7737 25.1632 38.7737ZM22.8082 38.512C22.8082 37.2114 23.8626 36.1571 25.1632 36.1571C26.4638 36.1571 27.5182 37.2114 27.5182 38.512C27.5182 39.8127 26.4638 40.867 25.1632 40.867C23.8626 40.867 22.8082 39.8127 22.8082 38.512Z" fill="white"/>
<path fill-rule="evenodd" clip-rule="evenodd" d="M36.6763 38.7737C36.8208 38.7737 36.9379 38.6566 36.9379 38.512C36.9379 38.3675 36.8208 38.2504 36.6763 38.2504C36.5317 38.2504 36.4146 38.3675 36.4146 38.512C36.4146 38.6566 36.5317 38.7737 36.6763 38.7737ZM34.3213 38.512C34.3213 37.2114 35.3756 36.1571 36.6763 36.1571C37.9769 36.1571 39.0312 37.2114 39.0312 38.512C39.0312 39.8127 37.9769 40.867 36.6763 40.867C35.3756 40.867 34.3213 39.8127 34.3213 38.512Z" fill="white"/>
<path fill-rule="evenodd" clip-rule="evenodd" d="M15.4817 17.5801C15.4817 16.8576 16.0674 16.2718 16.79 16.2718H20.9766C21.6002 16.2718 22.1371 16.7119 22.2595 17.3234L23.0965 21.5051H39.8164C40.2063 21.5051 40.5759 21.679 40.8244 21.9794C41.073 22.2798 41.1745 22.6755 41.1015 23.0585L39.425 31.8497C39.2695 32.6327 38.8434 33.3361 38.2216 33.8367C37.6033 34.3344 36.8306 34.6002 36.0373 34.5882H25.886C25.0927 34.6002 24.32 34.3344 23.7018 33.8367C23.0803 33.3364 22.6544 32.6336 22.4987 31.8511C22.4986 31.8507 22.4985 31.8502 22.4984 31.8497L20.7515 23.1218C20.7435 23.0887 20.7367 23.055 20.7313 23.0209L19.9042 18.8885H16.79C16.0674 18.8885 15.4817 18.3027 15.4817 17.5801ZM23.6202 24.1217L25.0649 31.3399C25.1008 31.5206 25.1991 31.683 25.3426 31.7985C25.4861 31.914 25.6657 31.9754 25.8499 31.9718L25.8749 31.9716H36.0484L36.0735 31.9718C36.2577 31.9754 36.4372 31.914 36.5808 31.7985C36.7233 31.6838 36.8212 31.5229 36.8577 31.3437L38.235 24.1217H23.6202Z" fill="white"/>
</svg>
