<svg width="153" height="153" viewBox="0 0 153 153" fill="none" xmlns="http://www.w3.org/2000/svg">
<path d="M153 76.5C153 62.379 149.092 48.5335 141.707 36.4969C134.323 24.4604 123.752 14.7025 111.164 8.30403L98.4673 33.2822C106.445 37.3371 113.144 43.5209 117.824 51.1489C122.503 58.7768 124.98 67.5511 124.98 76.5H153Z" fill="#C4C8CA"/>
<path d="M106.968 6.32892C92.4903 0.0430889 76.4233 -1.6111 60.9691 1.59312C45.5149 4.79734 31.43 12.7031 20.6453 24.2266C9.86067 35.7502 2.90421 50.3273 0.729611 65.9597C-1.44499 81.5921 1.26873 97.5144 8.49873 111.544L26.6331 102.199C21.3312 91.9104 19.3411 80.2341 20.9358 68.7705C22.5305 57.307 27.6318 46.6172 35.5405 38.1667C43.4491 29.7163 53.7779 23.9188 65.1108 21.5691C76.4438 19.2193 88.2261 20.4324 98.8425 25.0419L106.968 6.32892Z" fill="#797979"/>
<path d="M10.9508 115.94C20.7638 132.249 36.3042 144.315 54.5365 149.779C72.7688 155.244 92.3835 153.716 109.549 145.493L97.5752 120.496C86.6287 125.74 74.1207 126.714 62.4941 123.229C50.8676 119.745 40.9576 112.051 34.7 101.651L10.9508 115.94Z" fill="#100F0E"/>
<path d="M114.459 142.918C125.547 136.581 134.872 127.569 141.584 116.704C148.295 105.839 152.18 93.4666 152.884 80.715L125.637 79.2114C125.184 87.4144 122.685 95.3735 118.367 102.363C114.05 109.352 108.051 115.149 100.918 119.226L114.459 142.918Z" fill="#609746"/>
</svg>
