<svg width="474" height="484" viewBox="0 0 474 484" fill="none" xmlns="http://www.w3.org/2000/svg">
<rect x="381.5" y="0.5" width="92" height="31" rx="3.5" fill="white"/>
<path d="M397.324 21L394.5 10.8182H396.116L398.1 18.7031H398.194L400.257 10.8182H401.858L403.921 18.7081H404.016L405.995 10.8182H407.615L404.786 21H403.24L401.098 13.3736H401.018L398.875 21H397.324ZM411.436 21.1541C410.684 21.1541 410.036 20.9934 409.492 20.6719C408.952 20.3471 408.534 19.8913 408.239 19.3047C407.948 18.7147 407.802 18.0237 407.802 17.2315C407.802 16.4493 407.948 15.7599 408.239 15.1634C408.534 14.5668 408.945 14.1011 409.472 13.7663C410.003 13.4316 410.622 13.2642 411.332 13.2642C411.762 13.2642 412.18 13.3355 412.584 13.478C412.989 13.6205 413.352 13.8442 413.673 14.1491C413.995 14.4541 414.248 14.8501 414.434 15.3374C414.619 15.8213 414.712 16.4096 414.712 17.1023V17.6293H408.642V16.5156H413.256C413.256 16.1245 413.176 15.7782 413.017 15.4766C412.858 15.1716 412.634 14.9313 412.346 14.7557C412.061 14.58 411.726 14.4922 411.342 14.4922C410.924 14.4922 410.559 14.5949 410.248 14.8004C409.94 15.0026 409.701 15.2678 409.532 15.5959C409.366 15.9207 409.283 16.2737 409.283 16.6548V17.5249C409.283 18.0353 409.373 18.4695 409.552 18.8274C409.734 19.1854 409.988 19.4588 410.312 19.6477C410.637 19.8333 411.017 19.9261 411.451 19.9261C411.733 19.9261 411.989 19.8864 412.222 19.8068C412.454 19.724 412.654 19.6013 412.823 19.4389C412.992 19.2765 413.121 19.076 413.211 18.8374L414.618 19.0909C414.505 19.5052 414.303 19.8681 414.011 20.1797C413.723 20.4879 413.36 20.7282 412.922 20.9006C412.488 21.0696 411.993 21.1541 411.436 21.1541ZM419.653 21.1541C418.9 21.1541 418.252 20.9934 417.709 20.6719C417.169 20.3471 416.751 19.8913 416.456 19.3047C416.164 18.7147 416.019 18.0237 416.019 17.2315C416.019 16.4493 416.164 15.7599 416.456 15.1634C416.751 14.5668 417.162 14.1011 417.689 13.7663C418.219 13.4316 418.839 13.2642 419.548 13.2642C419.979 13.2642 420.397 13.3355 420.801 13.478C421.206 13.6205 421.569 13.8442 421.89 14.1491C422.212 14.4541 422.465 14.8501 422.651 15.3374C422.836 15.8213 422.929 16.4096 422.929 17.1023V17.6293H416.859V16.5156H421.472C421.472 16.1245 421.393 15.7782 421.234 15.4766C421.075 15.1716 420.851 14.9313 420.563 14.7557C420.278 14.58 419.943 14.4922 419.558 14.4922C419.141 14.4922 418.776 14.5949 418.465 14.8004C418.156 15.0026 417.918 15.2678 417.749 15.5959C417.583 15.9207 417.5 16.2737 417.5 16.6548V17.5249C417.5 18.0353 417.59 18.4695 417.769 18.8274C417.951 19.1854 418.204 19.4588 418.529 19.6477C418.854 19.8333 419.234 19.9261 419.668 19.9261C419.949 19.9261 420.206 19.8864 420.438 19.8068C420.67 19.724 420.871 19.6013 421.04 19.4389C421.209 19.2765 421.338 19.076 421.428 18.8374L422.835 19.0909C422.722 19.5052 422.52 19.8681 422.228 20.1797C421.94 20.4879 421.577 20.7282 421.139 20.9006C420.705 21.0696 420.21 21.1541 419.653 21.1541ZM425.946 18.4098L425.936 16.5952H426.194L429.237 13.3636H431.017L427.546 17.0426H427.313L425.946 18.4098ZM424.578 21V10.8182H426.065V21H424.578ZM429.401 21L426.666 17.3707L427.691 16.3317L431.225 21H429.401ZM433.858 10.8182V21H432.371V10.8182H433.858ZM436.797 23.8636C436.575 23.8636 436.373 23.8454 436.191 23.8089C436.008 23.7758 435.873 23.7393 435.783 23.6996L436.141 22.4815C436.413 22.5545 436.655 22.5859 436.867 22.576C437.079 22.5661 437.266 22.4865 437.429 22.3374C437.594 22.1882 437.74 21.9446 437.866 21.6065L438.05 21.0994L435.256 13.3636H436.847L438.781 19.2898H438.861L440.794 13.3636H442.39L439.243 22.0192C439.098 22.4169 438.912 22.7533 438.687 23.0284C438.461 23.3068 438.193 23.5156 437.881 23.6548C437.57 23.794 437.208 23.8636 436.797 23.8636Z" fill="#64748B"/>
<path d="M451.471 14.0881C451.471 14.0293 451.5 13.9557 451.544 13.9116C451.647 13.8086 451.809 13.8086 451.912 13.8969L455.854 17.6038C455.928 17.6773 456.06 17.6773 456.149 17.6038L460.091 13.8969C460.194 13.7939 460.356 13.8086 460.459 13.9116C460.562 14.0146 460.547 14.1764 460.444 14.2793L456.502 17.9863C456.222 18.2363 455.781 18.2363 455.516 17.9863L451.559 14.2793C451.5 14.2205 451.471 14.1617 451.471 14.0881Z" fill="#64748B"/>
<path fill-rule="evenodd" clip-rule="evenodd" d="M452.227 13.5465L456.001 17.096L459.764 13.5578C460.085 13.2445 460.542 13.3293 460.791 13.5787C461.112 13.8994 461.028 14.3612 460.777 14.6122L460.766 14.6224L456.816 18.3372C456.363 18.7424 455.644 18.7543 455.194 18.3292C455.193 18.3289 455.194 18.3294 455.194 18.3292L451.226 14.6124C451.103 14.4892 451 14.3167 451 14.0881C451 13.9058 451.078 13.7121 451.211 13.5787C451.495 13.2954 451.936 13.2971 452.218 13.5395L452.227 13.5465ZM455.516 17.9863C455.781 18.2363 456.222 18.2363 456.502 17.9863L460.444 14.2793C460.547 14.1764 460.562 14.0146 460.459 13.9116C460.356 13.8086 460.194 13.7939 460.091 13.8969L456.149 17.6038C456.06 17.6773 455.928 17.6773 455.854 17.6038L451.912 13.8969C451.809 13.8086 451.647 13.8086 451.544 13.9116C451.5 13.9557 451.471 14.0293 451.471 14.0881C451.471 14.1617 451.5 14.2205 451.559 14.2793L455.516 17.9863Z" fill="#64748B"/>
<rect x="381.5" y="0.5" width="92" height="31" rx="3.5" stroke="#E2E8F0"/>
<path d="M4.28125 6L8.14844 18.1562H8.29688L12.1719 6H15.9219L10.4063 22H6.04688L0.523438 6H4.28125ZM17.7852 22V10H21.1133V22H17.7852ZM19.457 8.45312C18.9622 8.45312 18.5378 8.28906 18.1836 7.96094C17.8346 7.6276 17.6602 7.22917 17.6602 6.76562C17.6602 6.30729 17.8346 5.91406 18.1836 5.58594C18.5378 5.2526 18.9622 5.08594 19.457 5.08594C19.9518 5.08594 20.3737 5.2526 20.7227 5.58594C21.0768 5.91406 21.2539 6.30729 21.2539 6.76562C21.2539 7.22917 21.0768 7.6276 20.7227 7.96094C20.3737 8.28906 19.9518 8.45312 19.457 8.45312ZM33.7637 13.4219L30.7168 13.6094C30.6647 13.349 30.5527 13.1146 30.3809 12.9062C30.209 12.6927 29.9824 12.5234 29.7012 12.3984C29.4251 12.2682 29.0944 12.2031 28.709 12.2031C28.1934 12.2031 27.7585 12.3125 27.4043 12.5312C27.0501 12.7448 26.873 13.0312 26.873 13.3906C26.873 13.6771 26.9876 13.9193 27.2168 14.1172C27.446 14.3151 27.8392 14.474 28.3965 14.5937L30.5684 15.0312C31.735 15.2708 32.6048 15.6562 33.1777 16.1875C33.7507 16.7187 34.0371 17.4167 34.0371 18.2812C34.0371 19.0677 33.8053 19.7578 33.3418 20.3516C32.8835 20.9453 32.2533 21.4089 31.4512 21.7422C30.6543 22.0703 29.735 22.2344 28.6934 22.2344C27.1048 22.2344 25.8392 21.9036 24.8965 21.2422C23.959 20.5755 23.4095 19.6693 23.248 18.5234L26.5215 18.3516C26.6204 18.8359 26.86 19.2057 27.2402 19.4609C27.6204 19.7109 28.1074 19.8359 28.7012 19.8359C29.2845 19.8359 29.7533 19.724 30.1074 19.5C30.4668 19.2708 30.6491 18.9766 30.6543 18.6172C30.6491 18.3151 30.5215 18.0677 30.2715 17.875C30.0215 17.6771 29.6361 17.526 29.1152 17.4219L27.0371 17.0078C25.8652 16.7734 24.9928 16.3672 24.4199 15.7891C23.8522 15.2109 23.5684 14.474 23.5684 13.5781C23.5684 12.8073 23.7767 12.1432 24.1934 11.5859C24.6152 11.0286 25.2064 10.599 25.9668 10.2969C26.7324 9.99479 27.6283 9.84375 28.6543 9.84375C30.1699 9.84375 31.3626 10.1641 32.2324 10.8047C33.1074 11.4453 33.6178 12.3177 33.7637 13.4219ZM36.1328 22V10H39.4609V22H36.1328ZM37.8047 8.45312C37.3099 8.45312 36.8854 8.28906 36.5313 7.96094C36.1823 7.6276 36.0078 7.22917 36.0078 6.76562C36.0078 6.30729 36.1823 5.91406 36.5313 5.58594C36.8854 5.2526 37.3099 5.08594 37.8047 5.08594C38.2995 5.08594 38.7214 5.2526 39.0703 5.58594C39.4245 5.91406 39.6016 6.30729 39.6016 6.76562C39.6016 7.22917 39.4245 7.6276 39.0703 7.96094C38.7214 8.28906 38.2995 8.45312 37.8047 8.45312ZM48.5098 10V12.5H41.2832V10H48.5098ZM42.9238 7.125H46.252V18.3125C46.252 18.6198 46.2988 18.8594 46.3926 19.0312C46.4863 19.1979 46.6165 19.3151 46.7832 19.3828C46.9551 19.4505 47.153 19.4844 47.377 19.4844C47.5332 19.4844 47.6895 19.4714 47.8457 19.4453C48.002 19.4141 48.1217 19.3906 48.2051 19.375L48.7285 21.8516C48.5618 21.9036 48.3275 21.9635 48.0254 22.0313C47.7233 22.1042 47.3561 22.1484 46.9238 22.1641C46.1217 22.1953 45.4186 22.0885 44.8145 21.8437C44.2155 21.599 43.7493 21.2187 43.416 20.7031C43.0827 20.1875 42.9186 19.5365 42.9238 18.75V7.125ZM55.9707 22.2344C54.7572 22.2344 53.7077 21.9766 52.8223 21.4609C51.9421 20.9401 51.2624 20.2161 50.7832 19.2891C50.304 18.3568 50.0645 17.276 50.0645 16.0469C50.0645 14.8073 50.304 13.724 50.7832 12.7969C51.2624 11.8646 51.9421 11.1406 52.8223 10.625C53.7077 10.1042 54.7572 9.84375 55.9707 9.84375C57.1842 9.84375 58.2311 10.1042 59.1113 10.625C59.9967 11.1406 60.679 11.8646 61.1582 12.7969C61.6374 13.724 61.877 14.8073 61.877 16.0469C61.877 17.276 61.6374 18.3568 61.1582 19.2891C60.679 20.2161 59.9967 20.9401 59.1113 21.4609C58.2311 21.9766 57.1842 22.2344 55.9707 22.2344ZM55.9863 19.6562C56.5384 19.6562 56.9993 19.5 57.3691 19.1875C57.7389 18.8698 58.0176 18.4375 58.2051 17.8906C58.3978 17.3437 58.4941 16.7214 58.4941 16.0234C58.4941 15.3255 58.3978 14.7031 58.2051 14.1562C58.0176 13.6094 57.7389 13.1771 57.3691 12.8594C56.9993 12.5417 56.5384 12.3828 55.9863 12.3828C55.429 12.3828 54.9603 12.5417 54.5801 12.8594C54.2051 13.1771 53.9212 13.6094 53.7285 14.1562C53.541 14.7031 53.4473 15.3255 53.4473 16.0234C53.4473 16.7214 53.541 17.3437 53.7285 17.8906C53.9212 18.4375 54.2051 18.8698 54.5801 19.1875C54.9603 19.5 55.429 19.6562 55.9863 19.6562ZM64.041 22V10H67.2676V12.0937H67.3926C67.6113 11.349 67.9785 10.7865 68.4941 10.4063C69.0098 10.0208 69.6035 9.82812 70.2754 9.82812C70.4421 9.82812 70.6217 9.83854 70.8145 9.85937C71.0072 9.88021 71.1764 9.90885 71.3223 9.94531V12.8984C71.166 12.8516 70.9499 12.8099 70.6738 12.7734C70.3978 12.737 70.1452 12.7188 69.916 12.7188C69.4264 12.7188 68.9889 12.8255 68.6035 13.0391C68.2233 13.2474 67.9212 13.5391 67.6973 13.9141C67.4785 14.2891 67.3691 14.7214 67.3691 15.2109V22H64.041ZM83.0273 13.4219L79.9805 13.6094C79.9284 13.349 79.8164 13.1146 79.6445 12.9062C79.4727 12.6927 79.2461 12.5234 78.9648 12.3984C78.6888 12.2682 78.3581 12.2031 77.9727 12.2031C77.457 12.2031 77.0221 12.3125 76.668 12.5312C76.3138 12.7448 76.1367 13.0312 76.1367 13.3906C76.1367 13.6771 76.2513 13.9193 76.4805 14.1172C76.7096 14.3151 77.1029 14.474 77.6602 14.5937L79.832 15.0312C80.9987 15.2708 81.8685 15.6562 82.4414 16.1875C83.0143 16.7187 83.3008 17.4167 83.3008 18.2812C83.3008 19.0677 83.069 19.7578 82.6055 20.3516C82.1471 20.9453 81.5169 21.4089 80.7148 21.7422C79.918 22.0703 78.9987 22.2344 77.957 22.2344C76.3685 22.2344 75.1029 21.9036 74.1602 21.2422C73.2227 20.5755 72.6732 19.6693 72.5117 18.5234L75.7852 18.3516C75.8841 18.8359 76.1237 19.2057 76.5039 19.4609C76.8841 19.7109 77.3711 19.8359 77.9648 19.8359C78.5482 19.8359 79.0169 19.724 79.3711 19.5C79.7305 19.2708 79.9128 18.9766 79.918 18.6172C79.9128 18.3151 79.7852 18.0677 79.5352 17.875C79.2852 17.6771 78.8997 17.526 78.3789 17.4219L76.3008 17.0078C75.1289 16.7734 74.2565 16.3672 73.6836 15.7891C73.1159 15.2109 72.832 14.474 72.832 13.5781C72.832 12.8073 73.0404 12.1432 73.457 11.5859C73.8789 11.0286 74.4701 10.599 75.2305 10.2969C75.9961 9.99479 76.8919 9.84375 77.918 9.84375C79.4336 9.84375 80.6263 10.1641 81.4961 10.8047C82.3711 11.4453 82.8815 12.3177 83.0273 13.4219ZM93.3086 22H89.6836L95.207 6H99.5664L105.082 22H101.457L97.4492 9.65625H97.3242L93.3086 22ZM93.082 15.7109H101.645V18.3516H93.082V15.7109ZM110.273 15.0625V22H106.945V10H110.117V12.1172H110.258C110.523 11.4193 110.969 10.8672 111.594 10.4609C112.219 10.0495 112.977 9.84375 113.867 9.84375C114.701 9.84375 115.427 10.026 116.047 10.3906C116.667 10.7552 117.148 11.276 117.492 11.9531C117.836 12.625 118.008 13.4271 118.008 14.3594V22H114.68V14.9531C114.685 14.2187 114.497 13.6458 114.117 13.2344C113.737 12.8177 113.214 12.6094 112.547 12.6094C112.099 12.6094 111.703 12.7057 111.359 12.8984C111.021 13.0911 110.755 13.3724 110.563 13.7422C110.375 14.1068 110.279 14.5469 110.273 15.0625ZM124.053 22.2266C123.287 22.2266 122.605 22.0938 122.006 21.8281C121.407 21.5573 120.933 21.1589 120.584 20.6328C120.24 20.1016 120.068 19.4401 120.068 18.6484C120.068 17.9818 120.191 17.4219 120.436 16.9687C120.68 16.5156 121.014 16.151 121.436 15.875C121.857 15.599 122.337 15.3906 122.873 15.25C123.415 15.1094 123.982 15.0104 124.576 14.9531C125.274 14.8802 125.837 14.8125 126.264 14.75C126.691 14.6823 127.001 14.5833 127.193 14.4531C127.386 14.3229 127.482 14.1302 127.482 13.875V13.8281C127.482 13.3333 127.326 12.9505 127.014 12.6797C126.706 12.4089 126.269 12.2734 125.701 12.2734C125.102 12.2734 124.626 12.4062 124.271 12.6719C123.917 12.9323 123.683 13.2604 123.568 13.6562L120.49 13.4062C120.646 12.6771 120.954 12.0469 121.412 11.5156C121.87 10.9792 122.462 10.5677 123.186 10.2812C123.915 9.98958 124.758 9.84375 125.717 9.84375C126.383 9.84375 127.021 9.92187 127.631 10.0781C128.245 10.2344 128.79 10.4766 129.264 10.8047C129.743 11.1328 130.12 11.5547 130.396 12.0703C130.673 12.5807 130.811 13.1927 130.811 13.9062V22H127.654V20.3359H127.561C127.368 20.7109 127.11 21.0417 126.787 21.3281C126.464 21.6094 126.076 21.8307 125.623 21.9922C125.17 22.1484 124.646 22.2266 124.053 22.2266ZM125.006 19.9297C125.495 19.9297 125.928 19.8333 126.303 19.6406C126.678 19.4427 126.972 19.1771 127.186 18.8438C127.399 18.5104 127.506 18.1328 127.506 17.7109V16.4375C127.402 16.5052 127.258 16.5677 127.076 16.625C126.899 16.6771 126.699 16.7266 126.475 16.7734C126.251 16.8151 126.027 16.8542 125.803 16.8906C125.579 16.9219 125.376 16.9505 125.193 16.9766C124.803 17.0339 124.462 17.125 124.17 17.25C123.878 17.375 123.652 17.5443 123.49 17.7578C123.329 17.9661 123.248 18.2266 123.248 18.5391C123.248 18.9922 123.412 19.3385 123.74 19.5781C124.074 19.8125 124.495 19.9297 125.006 19.9297ZM136.721 6V22H133.393V6H136.721ZM141.441 26.5C141.02 26.5 140.624 26.4661 140.254 26.3984C139.889 26.3359 139.587 26.2552 139.348 26.1562L140.098 23.6719C140.488 23.7917 140.84 23.8568 141.152 23.8672C141.47 23.8776 141.743 23.8047 141.973 23.6484C142.207 23.4922 142.397 23.2266 142.543 22.8516L142.738 22.3438L138.434 10H141.934L144.418 18.8125H144.543L147.051 10H150.574L145.91 23.2969C145.686 23.9427 145.382 24.5052 144.996 24.9844C144.616 25.4688 144.134 25.8411 143.551 26.1016C142.967 26.3672 142.264 26.5 141.441 26.5ZM158.66 10V12.5H151.434V10H158.66ZM153.074 7.125H156.402V18.3125C156.402 18.6198 156.449 18.8594 156.543 19.0312C156.637 19.1979 156.767 19.3151 156.934 19.3828C157.105 19.4505 157.303 19.4844 157.527 19.4844C157.684 19.4844 157.84 19.4714 157.996 19.4453C158.152 19.4141 158.272 19.3906 158.355 19.375L158.879 21.8516C158.712 21.9036 158.478 21.9635 158.176 22.0313C157.874 22.1042 157.507 22.1484 157.074 22.1641C156.272 22.1953 155.569 22.0885 154.965 21.8437C154.366 21.599 153.9 21.2187 153.566 20.7031C153.233 20.1875 153.069 19.5365 153.074 18.75V7.125ZM160.828 22V10H164.156V22H160.828ZM162.5 8.45312C162.005 8.45312 161.581 8.28906 161.227 7.96094C160.878 7.6276 160.703 7.22917 160.703 6.76562C160.703 6.30729 160.878 5.91406 161.227 5.58594C161.581 5.2526 162.005 5.08594 162.5 5.08594C162.995 5.08594 163.417 5.2526 163.766 5.58594C164.12 5.91406 164.297 6.30729 164.297 6.76562C164.297 7.22917 164.12 7.6276 163.766 7.96094C163.417 8.28906 162.995 8.45312 162.5 8.45312ZM172.244 22.2344C171.015 22.2344 169.958 21.974 169.072 21.4531C168.192 20.9271 167.515 20.1979 167.041 19.2656C166.572 18.3333 166.338 17.2604 166.338 16.0469C166.338 14.8177 166.575 13.7396 167.049 12.8125C167.528 11.8802 168.208 11.1536 169.088 10.6328C169.968 10.1068 171.015 9.84375 172.229 9.84375C173.275 9.84375 174.192 10.0339 174.979 10.4141C175.765 10.7943 176.387 11.3281 176.846 12.0156C177.304 12.7031 177.557 13.5104 177.604 14.4375H174.463C174.374 13.8385 174.14 13.3568 173.76 12.9922C173.385 12.6224 172.893 12.4375 172.283 12.4375C171.768 12.4375 171.317 12.5781 170.932 12.8594C170.551 13.1354 170.255 13.5391 170.041 14.0703C169.827 14.6016 169.721 15.2448 169.721 16C169.721 16.7656 169.825 17.4167 170.033 17.9531C170.247 18.4896 170.546 18.8984 170.932 19.1797C171.317 19.4609 171.768 19.6016 172.283 19.6016C172.663 19.6016 173.005 19.5234 173.307 19.3672C173.614 19.2109 173.867 18.9844 174.064 18.6875C174.268 18.3854 174.4 18.0234 174.463 17.6016H177.604C177.551 18.5182 177.301 19.3255 176.854 20.0234C176.411 20.7161 175.799 21.2578 175.018 21.6484C174.236 22.0391 173.312 22.2344 172.244 22.2344ZM189.719 13.4219L186.672 13.6094C186.62 13.349 186.508 13.1146 186.336 12.9062C186.164 12.6927 185.938 12.5234 185.656 12.3984C185.38 12.2682 185.049 12.2031 184.664 12.2031C184.148 12.2031 183.714 12.3125 183.359 12.5312C183.005 12.7448 182.828 13.0312 182.828 13.3906C182.828 13.6771 182.943 13.9193 183.172 14.1172C183.401 14.3151 183.794 14.474 184.352 14.5937L186.523 15.0312C187.69 15.2708 188.56 15.6562 189.133 16.1875C189.706 16.7187 189.992 17.4167 189.992 18.2812C189.992 19.0677 189.76 19.7578 189.297 20.3516C188.839 20.9453 188.208 21.4089 187.406 21.7422C186.609 22.0703 185.69 22.2344 184.648 22.2344C183.06 22.2344 181.794 21.9036 180.852 21.2422C179.914 20.5755 179.365 19.6693 179.203 18.5234L182.477 18.3516C182.576 18.8359 182.815 19.2057 183.195 19.4609C183.576 19.7109 184.063 19.8359 184.656 19.8359C185.24 19.8359 185.708 19.724 186.063 19.5C186.422 19.2708 186.604 18.9766 186.609 18.6172C186.604 18.3151 186.477 18.0677 186.227 17.875C185.977 17.6771 185.591 17.526 185.07 17.4219L182.992 17.0078C181.82 16.7734 180.948 16.3672 180.375 15.7891C179.807 15.2109 179.523 14.474 179.523 13.5781C179.523 12.8073 179.732 12.1432 180.148 11.5859C180.57 11.0286 181.161 10.599 181.922 10.2969C182.688 9.99479 183.583 9.84375 184.609 9.84375C186.125 9.84375 187.318 10.1641 188.188 10.8047C189.063 11.4453 189.573 12.3177 189.719 13.4219Z" fill="#212B36"/>
<mask id="path-5-inside-1_7_1527" fill="white">
<path d="M239 79.3477C269.192 79.3477 298.706 88.3006 323.809 105.074C348.913 121.848 368.479 145.689 380.033 173.583C391.587 201.477 394.61 232.17 388.72 261.782C382.829 291.394 368.291 318.594 346.942 339.943L309.162 302.163C323.039 288.286 332.489 270.606 336.318 251.358C340.146 232.111 338.181 212.16 330.671 194.029C323.161 175.898 310.443 160.401 294.126 149.499C277.809 138.596 258.624 132.776 239 132.776V79.3477Z"/>
</mask>
<path d="M239 79.3477C269.192 79.3477 298.706 88.3006 323.809 105.074C348.913 121.848 368.479 145.689 380.033 173.583C391.587 201.477 394.61 232.17 388.72 261.782C382.829 291.394 368.291 318.594 346.942 339.943L309.162 302.163C323.039 288.286 332.489 270.606 336.318 251.358C340.146 232.111 338.181 212.16 330.671 194.029C323.161 175.898 310.443 160.401 294.126 149.499C277.809 138.596 258.624 132.776 239 132.776V79.3477Z" stroke="#80CAEE" stroke-width="100" mask="url(#path-5-inside-1_7_1527)"/>
<mask id="path-6-inside-2_7_1527" fill="white">
<path d="M346.942 339.943C327.708 359.177 303.683 372.922 277.355 379.757C251.026 386.591 223.349 386.267 197.188 378.816L211.822 327.431C228.827 332.273 246.817 332.485 263.93 328.042C281.044 323.6 296.66 314.665 309.162 302.163L346.942 339.943Z"/>
</mask>
<path d="M346.942 339.943C327.708 359.177 303.683 372.922 277.355 379.757C251.026 386.591 223.349 386.267 197.188 378.816L211.822 327.431C228.827 332.273 246.817 332.485 263.93 328.042C281.044 323.6 296.66 314.665 309.162 302.163L346.942 339.943Z" stroke="#0FADCF" stroke-width="120" mask="url(#path-6-inside-2_7_1527)"/>
<mask id="path-7-inside-3_7_1527" fill="white">
<path d="M97.218 175.424C108.561 146.997 128.188 122.636 153.551 105.504C178.913 88.3714 208.84 79.2586 239.447 79.3483L239.291 132.777C219.396 132.718 199.944 138.642 183.458 149.778C166.972 160.914 154.215 176.748 146.842 195.226L97.218 175.424Z"/>
</mask>
<path d="M97.218 175.424C108.561 146.997 128.188 122.636 153.551 105.504C178.913 88.3714 208.84 79.2586 239.447 79.3483L239.291 132.777C219.396 132.718 199.944 138.642 183.458 149.778C166.972 160.914 154.215 176.748 146.842 195.226L97.218 175.424Z" stroke="#6577F3" stroke-width="80" mask="url(#path-7-inside-3_7_1527)"/>
<path d="M100.619 237.73C100.337 230.935 100.557 224.145 101.27 217.416L103.019 218.114C102.358 224.589 102.158 231.119 102.429 237.655C103.225 256.895 108.078 275.749 116.669 292.982C125.26 310.215 137.395 325.439 152.279 337.656C157.335 341.806 162.67 345.578 168.239 348.947L167.744 350.764C161.941 347.282 156.387 343.371 151.13 339.056C136.048 326.678 123.752 311.252 115.048 293.79C106.343 276.328 101.426 257.225 100.619 237.73Z" fill="#3C50E0" stroke="#3C50E0" stroke-width="75"/>
<path d="M220.466 233.278C219.419 233.272 218.408 233.096 217.433 232.751C216.465 232.407 215.597 231.847 214.828 231.071C214.059 230.295 213.449 229.268 212.999 227.989C212.554 226.709 212.332 225.138 212.332 223.276C212.339 221.565 212.535 220.037 212.919 218.692C213.31 217.339 213.867 216.193 214.589 215.251C215.319 214.31 216.19 213.594 217.205 213.104C218.219 212.607 219.356 212.358 220.615 212.358C221.974 212.358 223.174 212.623 224.214 213.153C225.255 213.677 226.09 214.39 226.72 215.291C227.357 216.193 227.741 217.204 227.874 218.324H223.628C223.462 217.615 223.114 217.058 222.584 216.653C222.054 216.249 221.397 216.047 220.615 216.047C219.289 216.047 218.282 216.624 217.592 217.777C216.91 218.93 216.562 220.498 216.548 222.48H216.688C216.992 221.877 217.403 221.363 217.92 220.939C218.444 220.508 219.037 220.18 219.7 219.955C220.37 219.723 221.076 219.607 221.818 219.607C223.025 219.607 224.098 219.892 225.04 220.462C225.981 221.025 226.723 221.801 227.267 222.788C227.811 223.776 228.082 224.906 228.082 226.179C228.082 227.558 227.761 228.784 227.118 229.858C226.482 230.932 225.59 231.774 224.443 232.384C223.303 232.987 221.977 233.285 220.466 233.278ZM220.446 229.898C221.109 229.898 221.702 229.739 222.226 229.42C222.75 229.102 223.161 228.671 223.459 228.128C223.757 227.584 223.906 226.974 223.906 226.298C223.906 225.622 223.757 225.016 223.459 224.479C223.167 223.942 222.763 223.514 222.246 223.196C221.729 222.878 221.139 222.719 220.476 222.719C219.979 222.719 219.518 222.812 219.094 222.997C218.676 223.183 218.308 223.441 217.99 223.773C217.679 224.104 217.433 224.489 217.254 224.926C217.075 225.357 216.986 225.818 216.986 226.308C216.986 226.964 217.135 227.564 217.433 228.108C217.738 228.652 218.149 229.086 218.666 229.411C219.19 229.735 219.783 229.898 220.446 229.898ZM239.119 233.447C237.409 233.441 235.938 233.02 234.705 232.185C233.478 231.349 232.534 230.14 231.871 228.555C231.214 226.971 230.89 225.065 230.896 222.838C230.896 220.617 231.224 218.725 231.881 217.161C232.544 215.596 233.488 214.406 234.714 213.591C235.947 212.769 237.416 212.358 239.119 212.358C240.823 212.358 242.288 212.769 243.514 213.591C244.747 214.413 245.695 215.606 246.358 217.17C247.021 218.728 247.349 220.617 247.342 222.838C247.342 225.072 247.011 226.981 246.348 228.565C245.692 230.15 244.75 231.359 243.524 232.195C242.298 233.03 240.83 233.447 239.119 233.447ZM239.119 229.878C240.286 229.878 241.217 229.291 241.913 228.118C242.609 226.945 242.954 225.185 242.947 222.838C242.947 221.294 242.788 220.008 242.47 218.98C242.159 217.953 241.714 217.18 241.138 216.663C240.568 216.146 239.895 215.888 239.119 215.888C237.959 215.888 237.031 216.468 236.335 217.628C235.639 218.788 235.288 220.525 235.281 222.838C235.281 224.402 235.437 225.708 235.749 226.756C236.067 227.796 236.514 228.579 237.091 229.102C237.668 229.619 238.344 229.878 239.119 229.878ZM258.397 233.447C256.686 233.441 255.215 233.02 253.982 232.185C252.756 231.349 251.811 230.14 251.148 228.555C250.492 226.971 250.167 225.065 250.174 222.838C250.174 220.617 250.502 218.725 251.158 217.161C251.821 215.596 252.766 214.406 253.992 213.591C255.225 212.769 256.693 212.358 258.397 212.358C260.1 212.358 261.565 212.769 262.792 213.591C264.025 214.413 264.972 215.606 265.635 217.17C266.298 218.728 266.626 220.617 266.62 222.838C266.62 225.072 266.288 226.981 265.625 228.565C264.969 230.15 264.028 231.359 262.801 232.195C261.575 233.03 260.107 233.447 258.397 233.447ZM258.397 229.878C259.563 229.878 260.495 229.291 261.191 228.118C261.887 226.945 262.231 225.185 262.225 222.838C262.225 221.294 262.066 220.008 261.748 218.98C261.436 217.953 260.992 217.18 260.415 216.663C259.845 216.146 259.172 215.888 258.397 215.888C257.237 215.888 256.309 216.468 255.613 217.628C254.917 218.788 254.565 220.525 254.559 222.838C254.559 224.402 254.714 225.708 255.026 226.756C255.344 227.796 255.792 228.579 256.368 229.102C256.945 229.619 257.621 229.878 258.397 229.878Z" fill="#212B36"/>
<path d="M212.295 243.364L215.534 252.841H215.665L218.903 243.364H220.801L216.614 255H214.585L210.398 243.364H212.295ZM222.345 255V246.273H224.044V255H222.345ZM223.203 244.926C222.908 244.926 222.654 244.828 222.442 244.631C222.233 244.43 222.129 244.191 222.129 243.915C222.129 243.634 222.233 243.396 222.442 243.199C222.654 242.998 222.908 242.898 223.203 242.898C223.499 242.898 223.75 242.998 223.959 243.199C224.171 243.396 224.277 243.634 224.277 243.915C224.277 244.191 224.171 244.43 223.959 244.631C223.75 244.828 223.499 244.926 223.203 244.926ZM232.869 248.403L231.33 248.676C231.265 248.479 231.163 248.292 231.023 248.114C230.886 247.936 230.701 247.79 230.466 247.676C230.231 247.562 229.938 247.506 229.585 247.506C229.104 247.506 228.703 247.614 228.381 247.83C228.059 248.042 227.898 248.316 227.898 248.653C227.898 248.945 228.006 249.18 228.222 249.358C228.438 249.536 228.786 249.682 229.267 249.795L230.653 250.114C231.456 250.299 232.055 250.585 232.449 250.972C232.843 251.358 233.04 251.86 233.04 252.477C233.04 253 232.888 253.466 232.585 253.875C232.286 254.28 231.867 254.598 231.33 254.83C230.795 255.061 230.176 255.176 229.472 255.176C228.494 255.176 227.697 254.968 227.08 254.551C226.462 254.131 226.083 253.534 225.943 252.761L227.585 252.511C227.688 252.939 227.898 253.263 228.216 253.483C228.534 253.699 228.949 253.807 229.46 253.807C230.017 253.807 230.462 253.691 230.795 253.46C231.129 253.225 231.295 252.939 231.295 252.602C231.295 252.33 231.193 252.1 230.989 251.915C230.788 251.729 230.479 251.589 230.062 251.494L228.585 251.17C227.771 250.985 227.169 250.689 226.778 250.284C226.392 249.879 226.199 249.366 226.199 248.744C226.199 248.229 226.343 247.778 226.631 247.392C226.919 247.006 227.316 246.705 227.824 246.489C228.331 246.269 228.913 246.159 229.568 246.159C230.511 246.159 231.254 246.364 231.795 246.773C232.337 247.178 232.695 247.722 232.869 248.403ZM234.908 255V246.273H236.607V255H234.908ZM235.766 244.926C235.47 244.926 235.216 244.828 235.004 244.631C234.796 244.43 234.692 244.191 234.692 243.915C234.692 243.634 234.796 243.396 235.004 243.199C235.216 242.998 235.47 242.898 235.766 242.898C236.061 242.898 236.313 242.998 236.521 243.199C236.733 243.396 236.839 243.634 236.839 243.915C236.839 244.191 236.733 244.43 236.521 244.631C236.313 244.828 236.061 244.926 235.766 244.926ZM242.966 246.273V247.636H238.199V246.273H242.966ZM239.477 244.182H241.176V252.438C241.176 252.767 241.225 253.015 241.324 253.182C241.422 253.345 241.549 253.456 241.705 253.517C241.864 253.574 242.036 253.602 242.222 253.602C242.358 253.602 242.477 253.593 242.58 253.574C242.682 253.555 242.761 253.54 242.818 253.528L243.125 254.932C243.027 254.97 242.886 255.008 242.705 255.045C242.523 255.087 242.295 255.11 242.023 255.114C241.576 255.121 241.159 255.042 240.773 254.875C240.386 254.708 240.074 254.451 239.835 254.102C239.597 253.754 239.477 253.316 239.477 252.79V244.182ZM248.428 255.176C247.609 255.176 246.895 254.989 246.286 254.614C245.676 254.239 245.202 253.714 244.865 253.04C244.528 252.366 244.359 251.578 244.359 250.676C244.359 249.771 244.528 248.979 244.865 248.301C245.202 247.623 245.676 247.097 246.286 246.722C246.895 246.347 247.609 246.159 248.428 246.159C249.246 246.159 249.96 246.347 250.57 246.722C251.179 247.097 251.653 247.623 251.99 248.301C252.327 248.979 252.496 249.771 252.496 250.676C252.496 251.578 252.327 252.366 251.99 253.04C251.653 253.714 251.179 254.239 250.57 254.614C249.96 254.989 249.246 255.176 248.428 255.176ZM248.433 253.75C248.964 253.75 249.403 253.61 249.751 253.33C250.1 253.049 250.357 252.676 250.524 252.21C250.695 251.744 250.78 251.231 250.78 250.67C250.78 250.114 250.695 249.602 250.524 249.136C250.357 248.667 250.1 248.29 249.751 248.006C249.403 247.722 248.964 247.58 248.433 247.58C247.899 247.58 247.456 247.722 247.104 248.006C246.755 248.29 246.496 248.667 246.325 249.136C246.159 249.602 246.075 250.114 246.075 250.67C246.075 251.231 246.159 251.744 246.325 252.21C246.496 252.676 246.755 253.049 247.104 253.33C247.456 253.61 247.899 253.75 248.433 253.75ZM254.392 255V246.273H256.034V247.659H256.125C256.284 247.189 256.564 246.82 256.966 246.551C257.371 246.278 257.83 246.142 258.341 246.142C258.447 246.142 258.572 246.146 258.716 246.153C258.864 246.161 258.979 246.17 259.062 246.182V247.807C258.994 247.788 258.873 247.767 258.699 247.744C258.525 247.718 258.35 247.705 258.176 247.705C257.775 247.705 257.417 247.79 257.102 247.96C256.792 248.127 256.545 248.36 256.364 248.659C256.182 248.955 256.091 249.292 256.091 249.67V255H254.392ZM267.072 248.403L265.533 248.676C265.468 248.479 265.366 248.292 265.226 248.114C265.089 247.936 264.904 247.79 264.669 247.676C264.434 247.562 264.141 247.506 263.788 247.506C263.307 247.506 262.906 247.614 262.584 247.83C262.262 248.042 262.101 248.316 262.101 248.653C262.101 248.945 262.209 249.18 262.425 249.358C262.641 249.536 262.989 249.682 263.47 249.795L264.857 250.114C265.66 250.299 266.258 250.585 266.652 250.972C267.046 251.358 267.243 251.86 267.243 252.477C267.243 253 267.091 253.466 266.788 253.875C266.489 254.28 266.071 254.598 265.533 254.83C264.999 255.061 264.379 255.176 263.675 255.176C262.697 255.176 261.9 254.968 261.283 254.551C260.665 254.131 260.286 253.534 260.146 252.761L261.788 252.511C261.891 252.939 262.101 253.263 262.419 253.483C262.737 253.699 263.152 253.807 263.663 253.807C264.22 253.807 264.665 253.691 264.999 253.46C265.332 253.225 265.499 252.939 265.499 252.602C265.499 252.33 265.396 252.1 265.192 251.915C264.991 251.729 264.682 251.589 264.266 251.494L262.788 251.17C261.974 250.985 261.372 250.689 260.982 250.284C260.595 249.879 260.402 249.366 260.402 248.744C260.402 248.229 260.546 247.778 260.834 247.392C261.122 247.006 261.519 246.705 262.027 246.489C262.535 246.269 263.116 246.159 263.771 246.159C264.714 246.159 265.457 246.364 265.999 246.773C266.54 247.178 266.898 247.722 267.072 248.403Z" fill="#637381"/>
<rect x="11" y="348" width="88" height="36" rx="3" fill="#3C50E0"/>
<g filter="url(#filter0_d_7_1527)">
<path d="M27.1193 372V370.727L31.0568 366.648C31.4773 366.205 31.8239 365.816 32.0966 365.483C32.3731 365.146 32.5795 364.826 32.7159 364.523C32.8523 364.22 32.9205 363.898 32.9205 363.557C32.9205 363.17 32.8295 362.837 32.6477 362.557C32.4659 362.273 32.2178 362.055 31.9034 361.903C31.589 361.748 31.2348 361.67 30.8409 361.67C30.4242 361.67 30.0606 361.756 29.75 361.926C29.4394 362.097 29.2008 362.337 29.0341 362.648C28.8674 362.958 28.7841 363.322 28.7841 363.739H27.108C27.108 363.03 27.2708 362.411 27.5966 361.881C27.9223 361.35 28.3693 360.939 28.9375 360.648C29.5057 360.352 30.1515 360.205 30.875 360.205C31.6061 360.205 32.25 360.35 32.8068 360.642C33.3674 360.93 33.8049 361.324 34.1193 361.824C34.4337 362.32 34.5909 362.881 34.5909 363.506C34.5909 363.938 34.5095 364.36 34.3466 364.773C34.1875 365.186 33.9091 365.646 33.5114 366.153C33.1136 366.657 32.5606 367.269 31.8523 367.989L29.5398 370.409V370.494H34.7784V372H27.1193ZM40.983 372.193C40.0852 372.189 39.3182 371.953 38.6818 371.483C38.0455 371.013 37.5587 370.33 37.2216 369.432C36.8845 368.534 36.7159 367.453 36.7159 366.188C36.7159 364.926 36.8845 363.848 37.2216 362.955C37.5625 362.061 38.0511 361.379 38.6875 360.909C39.3277 360.439 40.0928 360.205 40.983 360.205C41.8731 360.205 42.6364 360.441 43.2727 360.915C43.9091 361.384 44.3958 362.066 44.733 362.96C45.0739 363.85 45.2443 364.926 45.2443 366.188C45.2443 367.456 45.0758 368.54 44.7386 369.438C44.4015 370.331 43.9148 371.015 43.2784 371.489C42.642 371.958 41.8769 372.193 40.983 372.193ZM40.983 370.676C41.7708 370.676 42.3864 370.292 42.8295 369.523C43.2765 368.754 43.5 367.642 43.5 366.188C43.5 365.222 43.3977 364.405 43.1932 363.739C42.9924 363.068 42.7027 362.561 42.3239 362.216C41.9489 361.867 41.5019 361.693 40.983 361.693C40.1989 361.693 39.5833 362.08 39.1364 362.852C38.6894 363.625 38.464 364.737 38.4602 366.188C38.4602 367.157 38.5606 367.977 38.7614 368.648C38.9659 369.314 39.2557 369.82 39.6307 370.165C40.0057 370.506 40.4564 370.676 40.983 370.676ZM47.9801 372.108C47.6695 372.108 47.4025 371.998 47.179 371.778C46.9555 371.555 46.8438 371.286 46.8438 370.972C46.8438 370.661 46.9555 370.396 47.179 370.176C47.4025 369.953 47.6695 369.841 47.9801 369.841C48.2907 369.841 48.5578 369.953 48.7812 370.176C49.0047 370.396 49.1165 370.661 49.1165 370.972C49.1165 371.18 49.0634 371.371 48.9574 371.545C48.8551 371.716 48.7188 371.852 48.5483 371.955C48.3778 372.057 48.1884 372.108 47.9801 372.108ZM55.098 360.205C55.617 360.208 56.1283 360.303 56.6321 360.489C57.1359 360.674 57.5904 360.977 57.9957 361.398C58.4048 361.818 58.7306 362.386 58.973 363.102C59.2192 363.814 59.3442 364.701 59.348 365.761C59.348 366.78 59.2457 367.687 59.0412 368.483C58.8366 369.275 58.5431 369.943 58.1605 370.489C57.7817 371.034 57.3215 371.449 56.7798 371.733C56.2382 372.017 55.6283 372.159 54.9503 372.159C54.2571 372.159 53.6416 372.023 53.1037 371.75C52.5658 371.477 52.1283 371.1 51.7912 370.619C51.4541 370.134 51.2438 369.578 51.1605 368.949H52.8935C53.0071 369.449 53.2382 369.854 53.5866 370.165C53.9389 370.472 54.3935 370.625 54.9503 370.625C55.8026 370.625 56.4673 370.254 56.9446 369.511C57.4219 368.765 57.6624 367.723 57.6662 366.386H57.5753C57.3783 366.712 57.1321 366.992 56.8366 367.227C56.545 367.462 56.2173 367.644 55.8537 367.773C55.4901 367.902 55.1018 367.966 54.6889 367.966C54.0185 367.966 53.4086 367.801 52.8594 367.472C52.3101 367.142 51.8726 366.689 51.5469 366.114C51.2211 365.538 51.0582 364.881 51.0582 364.142C51.0582 363.407 51.2249 362.741 51.5582 362.142C51.8954 361.544 52.3651 361.07 52.9673 360.722C53.5734 360.369 54.2836 360.197 55.098 360.205ZM55.1037 361.682C54.6605 361.682 54.2609 361.792 53.9048 362.011C53.5526 362.227 53.2741 362.521 53.0696 362.892C52.8651 363.259 52.7628 363.669 52.7628 364.119C52.7628 364.57 52.8613 364.979 53.0582 365.347C53.259 365.71 53.5317 366 53.8764 366.216C54.2249 366.428 54.6226 366.534 55.0696 366.534C55.4029 366.534 55.7135 366.47 56.0014 366.341C56.2893 366.212 56.5412 366.034 56.7571 365.807C56.973 365.576 57.1416 365.314 57.2628 365.023C57.384 364.731 57.4446 364.424 57.4446 364.102C57.4446 363.674 57.3423 363.277 57.1378 362.909C56.937 362.542 56.6605 362.246 56.3082 362.023C55.956 361.795 55.5545 361.682 55.1037 361.682ZM65.4517 372.159C64.6714 372.159 63.9744 372.025 63.3608 371.756C62.7509 371.487 62.268 371.114 61.9119 370.636C61.5597 370.155 61.3703 369.598 61.3438 368.966H63.1278C63.1506 369.311 63.2661 369.61 63.4744 369.864C63.6866 370.114 63.9631 370.307 64.304 370.443C64.6449 370.58 65.0237 370.648 65.4403 370.648C65.8987 370.648 66.304 370.568 66.6562 370.409C67.0123 370.25 67.2907 370.028 67.4915 369.744C67.6922 369.456 67.7926 369.125 67.7926 368.75C67.7926 368.36 67.6922 368.017 67.4915 367.722C67.2945 367.422 67.0047 367.187 66.6222 367.017C66.2434 366.847 65.785 366.761 65.2472 366.761H64.2642V365.33H65.2472C65.679 365.33 66.0578 365.252 66.3835 365.097C66.7131 364.941 66.9706 364.725 67.1562 364.449C67.3419 364.169 67.4347 363.841 67.4347 363.466C67.4347 363.106 67.3532 362.794 67.1903 362.528C67.0313 362.259 66.804 362.049 66.5085 361.898C66.2169 361.746 65.8722 361.67 65.4744 361.67C65.0956 361.67 64.7415 361.741 64.4119 361.881C64.0862 362.017 63.821 362.214 63.6165 362.472C63.4119 362.725 63.3021 363.03 63.2869 363.386H61.5881C61.607 362.758 61.7926 362.205 62.1449 361.727C62.5009 361.25 62.9706 360.877 63.554 360.608C64.1373 360.339 64.785 360.205 65.4972 360.205C66.2434 360.205 66.8873 360.35 67.429 360.642C67.9744 360.93 68.3949 361.314 68.6903 361.795C68.9896 362.277 69.1373 362.803 69.1335 363.375C69.1373 364.027 68.9555 364.58 68.5881 365.034C68.2244 365.489 67.7396 365.794 67.1335 365.949V366.04C67.9063 366.157 68.5047 366.464 68.929 366.96C69.357 367.456 69.5691 368.072 69.5653 368.807C69.5691 369.447 69.3911 370.021 69.0312 370.528C68.6752 371.036 68.1884 371.436 67.571 371.727C66.9536 372.015 66.2472 372.159 65.4517 372.159ZM77.7869 369.818V369.205C77.7869 368.765 77.8778 368.364 78.0597 368C78.2453 367.633 78.5142 367.339 78.8665 367.119C79.2225 366.896 79.6525 366.784 80.1562 366.784C80.6714 366.784 81.1032 366.894 81.4517 367.114C81.8002 367.333 82.0634 367.627 82.2415 367.994C82.4233 368.362 82.5142 368.765 82.5142 369.205V369.818C82.5142 370.258 82.4233 370.661 82.2415 371.028C82.0597 371.392 81.7926 371.686 81.4403 371.909C81.0919 372.129 80.6638 372.239 80.1562 372.239C79.6449 372.239 79.2131 372.129 78.8608 371.909C78.5085 371.686 78.2415 371.392 78.0597 371.028C77.8778 370.661 77.7869 370.258 77.7869 369.818ZM79.1108 369.205V369.818C79.1108 370.144 79.1884 370.439 79.3438 370.705C79.4991 370.97 79.7699 371.102 80.1562 371.102C80.5388 371.102 80.8059 370.97 80.9574 370.705C81.1089 370.439 81.1847 370.144 81.1847 369.818V369.205C81.1847 368.879 81.1108 368.583 80.9631 368.318C80.8191 368.053 80.5502 367.92 80.1562 367.92C79.7775 367.92 79.5085 368.053 79.3494 368.318C79.1903 368.583 79.1108 368.879 79.1108 369.205ZM71.9347 363.159V362.545C71.9347 362.106 72.0256 361.703 72.2074 361.335C72.393 360.968 72.6619 360.674 73.0142 360.455C73.3703 360.235 73.8002 360.125 74.304 360.125C74.8191 360.125 75.2509 360.235 75.5994 360.455C75.9479 360.674 76.2112 360.968 76.3892 361.335C76.5672 361.703 76.6562 362.106 76.6562 362.545V363.159C76.6562 363.598 76.5653 364.002 76.3835 364.369C76.2055 364.733 75.9403 365.027 75.5881 365.25C75.2396 365.47 74.8116 365.58 74.304 365.58C73.7888 365.58 73.3551 365.47 73.0028 365.25C72.6544 365.027 72.3892 364.733 72.2074 364.369C72.0256 364.002 71.9347 363.598 71.9347 363.159ZM73.2642 362.545V363.159C73.2642 363.485 73.34 363.78 73.4915 364.045C73.6468 364.311 73.9176 364.443 74.304 364.443C74.6828 364.443 74.9479 364.311 75.0994 364.045C75.2547 363.78 75.3324 363.485 75.3324 363.159V362.545C75.3324 362.22 75.2585 361.924 75.1108 361.659C74.9631 361.394 74.6941 361.261 74.304 361.261C73.9252 361.261 73.6563 361.394 73.4972 361.659C73.3419 361.924 73.2642 362.22 73.2642 362.545ZM72.4744 372L80.4744 360.364H81.8324L73.8324 372H72.4744Z" fill="white"/>
</g>
<circle cx="86" cy="441" r="6" fill="#3C50E0"/>
<path d="M104.415 446H101.119V435.818H104.519C105.517 435.818 106.374 436.022 107.089 436.43C107.805 436.834 108.354 437.416 108.735 438.175C109.12 438.93 109.312 439.837 109.312 440.894C109.312 441.955 109.118 442.866 108.73 443.629C108.346 444.391 107.789 444.978 107.06 445.388C106.33 445.796 105.449 446 104.415 446ZM102.655 444.658H104.33C105.106 444.658 105.75 444.512 106.264 444.22C106.778 443.925 107.162 443.499 107.418 442.942C107.673 442.382 107.8 441.7 107.8 440.894C107.8 440.095 107.673 439.418 107.418 438.861C107.166 438.304 106.79 437.881 106.289 437.593C105.789 437.305 105.167 437.161 104.425 437.161H102.655V444.658ZM114.394 446.154C113.642 446.154 112.994 445.993 112.45 445.672C111.91 445.347 111.492 444.891 111.197 444.305C110.906 443.715 110.76 443.024 110.76 442.232C110.76 441.449 110.906 440.76 111.197 440.163C111.492 439.567 111.903 439.101 112.43 438.766C112.961 438.432 113.58 438.264 114.29 438.264C114.72 438.264 115.138 438.335 115.542 438.478C115.947 438.621 116.31 438.844 116.631 439.149C116.953 439.454 117.206 439.85 117.392 440.337C117.577 440.821 117.67 441.41 117.67 442.102V442.629H111.6V441.516H116.214C116.214 441.125 116.134 440.778 115.975 440.477C115.816 440.172 115.592 439.931 115.304 439.756C115.019 439.58 114.684 439.492 114.3 439.492C113.882 439.492 113.517 439.595 113.206 439.8C112.898 440.003 112.659 440.268 112.49 440.596C112.324 440.921 112.241 441.274 112.241 441.655V442.525C112.241 443.035 112.331 443.469 112.51 443.827C112.692 444.185 112.946 444.459 113.27 444.648C113.595 444.833 113.975 444.926 114.409 444.926C114.691 444.926 114.948 444.886 115.18 444.807C115.412 444.724 115.612 444.601 115.781 444.439C115.95 444.277 116.079 444.076 116.169 443.837L117.576 444.091C117.463 444.505 117.261 444.868 116.969 445.18C116.681 445.488 116.318 445.728 115.881 445.901C115.446 446.07 114.951 446.154 114.394 446.154ZM125.042 440.228L123.695 440.467C123.638 440.294 123.549 440.13 123.426 439.974C123.307 439.819 123.144 439.691 122.939 439.592C122.733 439.492 122.477 439.442 122.168 439.442C121.747 439.442 121.396 439.537 121.114 439.726C120.833 439.911 120.692 440.152 120.692 440.447C120.692 440.702 120.786 440.907 120.975 441.063C121.164 441.219 121.469 441.347 121.89 441.446L123.103 441.724C123.806 441.887 124.329 442.137 124.674 442.475C125.019 442.813 125.191 443.252 125.191 443.793C125.191 444.25 125.058 444.658 124.793 445.016C124.531 445.37 124.165 445.649 123.695 445.851C123.227 446.053 122.685 446.154 122.069 446.154C121.214 446.154 120.516 445.972 119.976 445.607C119.436 445.239 119.104 444.717 118.982 444.041L120.418 443.822C120.508 444.197 120.692 444.48 120.97 444.673C121.249 444.862 121.612 444.956 122.059 444.956C122.546 444.956 122.936 444.855 123.227 444.653C123.519 444.447 123.665 444.197 123.665 443.902C123.665 443.663 123.575 443.463 123.396 443.3C123.221 443.138 122.951 443.015 122.586 442.933L121.293 442.649C120.581 442.487 120.054 442.228 119.712 441.874C119.374 441.519 119.205 441.07 119.205 440.526C119.205 440.076 119.331 439.681 119.583 439.343C119.835 439.005 120.183 438.741 120.627 438.553C121.071 438.36 121.58 438.264 122.153 438.264C122.979 438.264 123.628 438.443 124.102 438.801C124.576 439.156 124.889 439.631 125.042 440.228ZM128.193 443.41L128.183 441.595H128.441L131.484 438.364H133.264L129.794 442.043H129.56L128.193 443.41ZM126.825 446V435.818H128.312V446H126.825ZM131.648 446L128.914 442.371L129.938 441.332L133.472 446H131.648ZM138.183 438.364V439.557H134.012V438.364H138.183ZM135.131 436.534H136.617V443.758C136.617 444.046 136.66 444.263 136.746 444.409C136.832 444.552 136.943 444.649 137.079 444.702C137.219 444.752 137.369 444.777 137.532 444.777C137.651 444.777 137.756 444.769 137.845 444.752C137.934 444.736 138.004 444.722 138.054 444.712L138.322 445.94C138.236 445.973 138.113 446.007 137.954 446.04C137.795 446.076 137.596 446.096 137.358 446.099C136.967 446.106 136.602 446.036 136.264 445.891C135.926 445.745 135.653 445.519 135.444 445.214C135.235 444.91 135.131 444.527 135.131 444.066V436.534ZM142.962 446.154C142.246 446.154 141.621 445.99 141.088 445.662C140.554 445.334 140.14 444.875 139.845 444.285C139.55 443.695 139.402 443.005 139.402 442.217C139.402 441.424 139.55 440.732 139.845 440.138C140.14 439.545 140.554 439.085 141.088 438.756C141.621 438.428 142.246 438.264 142.962 438.264C143.678 438.264 144.303 438.428 144.836 438.756C145.37 439.085 145.784 439.545 146.079 440.138C146.374 440.732 146.522 441.424 146.522 442.217C146.522 443.005 146.374 443.695 146.079 444.285C145.784 444.875 145.37 445.334 144.836 445.662C144.303 445.99 143.678 446.154 142.962 446.154ZM142.967 444.906C143.431 444.906 143.815 444.784 144.12 444.538C144.425 444.293 144.651 443.967 144.797 443.559C144.946 443.151 145.02 442.702 145.02 442.212C145.02 441.724 144.946 441.277 144.797 440.869C144.651 440.458 144.425 440.129 144.12 439.88C143.815 439.631 143.431 439.507 142.967 439.507C142.5 439.507 142.112 439.631 141.804 439.88C141.499 440.129 141.272 440.458 141.123 440.869C140.977 441.277 140.904 441.724 140.904 442.212C140.904 442.702 140.977 443.151 141.123 443.559C141.272 443.967 141.499 444.293 141.804 444.538C142.112 444.784 142.5 444.906 142.967 444.906ZM148.181 448.864V438.364H149.633V439.602H149.757C149.843 439.442 149.967 439.259 150.13 439.05C150.292 438.841 150.518 438.659 150.806 438.503C151.094 438.344 151.475 438.264 151.949 438.264C152.566 438.264 153.116 438.42 153.6 438.732C154.084 439.043 154.463 439.492 154.738 440.079C155.017 440.665 155.156 441.371 155.156 442.197C155.156 443.022 155.019 443.73 154.743 444.32C154.468 444.906 154.09 445.359 153.61 445.677C153.129 445.992 152.581 446.149 151.964 446.149C151.5 446.149 151.121 446.071 150.826 445.915C150.534 445.76 150.305 445.577 150.14 445.369C149.974 445.16 149.846 444.974 149.757 444.812H149.667V448.864H148.181ZM149.638 442.182C149.638 442.719 149.715 443.189 149.871 443.594C150.027 443.998 150.252 444.315 150.547 444.543C150.842 444.769 151.204 444.881 151.631 444.881C152.075 444.881 152.447 444.764 152.745 444.528C153.043 444.29 153.269 443.967 153.421 443.559C153.577 443.151 153.655 442.692 153.655 442.182C153.655 441.678 153.578 441.226 153.426 440.825C153.277 440.424 153.051 440.107 152.75 439.875C152.452 439.643 152.079 439.527 151.631 439.527C151.2 439.527 150.836 439.638 150.537 439.86C150.242 440.082 150.019 440.392 149.866 440.79C149.714 441.187 149.638 441.652 149.638 442.182Z" fill="#212B36"/>
<path d="M200.534 446.139C200.08 446.133 199.633 446.05 199.192 445.891C198.754 445.732 198.357 445.466 197.999 445.095C197.641 444.724 197.354 444.225 197.138 443.599C196.926 442.972 196.82 442.19 196.82 441.252C196.82 440.364 196.908 439.575 197.084 438.886C197.263 438.196 197.52 437.615 197.854 437.141C198.189 436.663 198.594 436.3 199.067 436.052C199.541 435.803 200.073 435.679 200.663 435.679C201.27 435.679 201.808 435.798 202.279 436.037C202.75 436.276 203.131 436.605 203.423 437.026C203.718 437.447 203.905 437.926 203.984 438.463H202.468C202.365 438.039 202.161 437.692 201.857 437.424C201.552 437.156 201.154 437.021 200.663 437.021C199.918 437.021 199.336 437.346 198.918 437.996C198.504 438.645 198.295 439.549 198.292 440.705H198.366C198.542 440.417 198.758 440.172 199.013 439.969C199.271 439.764 199.56 439.607 199.878 439.497C200.199 439.384 200.537 439.328 200.892 439.328C201.482 439.328 202.016 439.472 202.493 439.761C202.973 440.046 203.356 440.44 203.641 440.944C203.926 441.448 204.069 442.024 204.069 442.674C204.069 443.324 203.921 443.912 203.626 444.439C203.335 444.966 202.924 445.384 202.393 445.692C201.863 445.997 201.243 446.146 200.534 446.139ZM200.529 444.847C200.92 444.847 201.27 444.75 201.578 444.558C201.886 444.366 202.13 444.107 202.309 443.783C202.488 443.458 202.577 443.095 202.577 442.694C202.577 442.303 202.49 441.946 202.314 441.625C202.142 441.304 201.903 441.048 201.598 440.859C201.296 440.67 200.952 440.576 200.564 440.576C200.269 440.576 199.996 440.632 199.744 440.745C199.495 440.858 199.276 441.013 199.087 441.212C198.898 441.411 198.749 441.64 198.64 441.898C198.534 442.154 198.481 442.424 198.481 442.709C198.481 443.09 198.569 443.443 198.744 443.768C198.923 444.093 199.167 444.354 199.475 444.553C199.787 444.749 200.138 444.847 200.529 444.847ZM209.241 446.139C208.617 446.139 208.057 446.02 207.56 445.781C207.066 445.539 206.672 445.208 206.377 444.787C206.082 444.366 205.925 443.885 205.905 443.345H207.396C207.433 443.783 207.626 444.142 207.978 444.424C208.329 444.706 208.75 444.847 209.241 444.847C209.632 444.847 209.978 444.757 210.28 444.578C210.585 444.396 210.823 444.146 210.996 443.827C211.171 443.509 211.259 443.146 211.259 442.739C211.259 442.324 211.17 441.955 210.991 441.63C210.812 441.305 210.565 441.05 210.25 440.864C209.938 440.679 209.58 440.584 209.176 440.581C208.868 440.581 208.558 440.634 208.246 440.74C207.935 440.846 207.683 440.985 207.491 441.158L206.084 440.949L206.655 435.818H212.253V437.136H207.933L207.61 439.984H207.67C207.868 439.792 208.132 439.631 208.46 439.502C208.791 439.373 209.146 439.308 209.524 439.308C210.144 439.308 210.696 439.456 211.18 439.751C211.667 440.046 212.05 440.448 212.328 440.959C212.61 441.466 212.749 442.049 212.746 442.709C212.749 443.368 212.6 443.957 212.298 444.474C212 444.991 211.586 445.398 211.055 445.697C210.528 445.992 209.923 446.139 209.241 446.139ZM219.876 444.091V443.554C219.876 443.17 219.956 442.818 220.115 442.5C220.277 442.179 220.512 441.922 220.821 441.729C221.132 441.534 221.508 441.436 221.949 441.436C222.4 441.436 222.778 441.532 223.083 441.724C223.388 441.917 223.618 442.174 223.774 442.495C223.933 442.817 224.012 443.17 224.012 443.554V444.091C224.012 444.475 223.933 444.828 223.774 445.15C223.615 445.468 223.381 445.725 223.073 445.92C222.768 446.113 222.393 446.209 221.949 446.209C221.502 446.209 221.124 446.113 220.816 445.92C220.507 445.725 220.274 445.468 220.115 445.15C219.956 444.828 219.876 444.475 219.876 444.091ZM221.034 443.554V444.091C221.034 444.376 221.102 444.634 221.238 444.866C221.374 445.098 221.611 445.214 221.949 445.214C222.284 445.214 222.518 445.098 222.65 444.866C222.783 444.634 222.849 444.376 222.849 444.091V443.554C222.849 443.269 222.784 443.01 222.655 442.778C222.529 442.546 222.294 442.43 221.949 442.43C221.618 442.43 221.382 442.546 221.243 442.778C221.104 443.01 221.034 443.269 221.034 443.554ZM214.755 438.264V437.727C214.755 437.343 214.835 436.99 214.994 436.668C215.156 436.347 215.392 436.09 215.7 435.898C216.011 435.705 216.388 435.609 216.828 435.609C217.279 435.609 217.657 435.705 217.962 435.898C218.267 436.09 218.497 436.347 218.653 436.668C218.809 436.99 218.887 437.343 218.887 437.727V438.264C218.887 438.649 218.807 439.002 218.648 439.323C218.492 439.641 218.26 439.898 217.952 440.094C217.647 440.286 217.273 440.382 216.828 440.382C216.378 440.382 215.998 440.286 215.69 440.094C215.385 439.898 215.153 439.641 214.994 439.323C214.835 439.002 214.755 438.649 214.755 438.264ZM215.919 437.727V438.264C215.919 438.549 215.985 438.808 216.118 439.04C216.253 439.272 216.49 439.388 216.828 439.388C217.16 439.388 217.392 439.272 217.525 439.04C217.66 438.808 217.728 438.549 217.728 438.264V437.727C217.728 437.442 217.664 437.184 217.534 436.952C217.405 436.72 217.17 436.604 216.828 436.604C216.497 436.604 216.262 436.72 216.123 436.952C215.987 437.184 215.919 437.442 215.919 437.727ZM215.228 446L222.228 435.818H223.416L216.416 446H215.228Z" fill="#212B36"/>
<circle cx="86" cy="473" r="6" fill="#8FD0EF"/>
<path d="M101.119 467.818H102.983L106.224 475.733H106.344L109.585 467.818H111.45V478H109.988V470.632H109.893L106.891 477.985H105.678L102.675 470.627H102.58V478H101.119V467.818ZM116.78 478.154C116.064 478.154 115.44 477.99 114.906 477.662C114.372 477.334 113.958 476.875 113.663 476.285C113.368 475.695 113.221 475.005 113.221 474.217C113.221 473.424 113.368 472.732 113.663 472.138C113.958 471.545 114.372 471.085 114.906 470.756C115.44 470.428 116.064 470.264 116.78 470.264C117.496 470.264 118.121 470.428 118.655 470.756C119.188 471.085 119.603 471.545 119.898 472.138C120.193 472.732 120.34 473.424 120.34 474.217C120.34 475.005 120.193 475.695 119.898 476.285C119.603 476.875 119.188 477.334 118.655 477.662C118.121 477.99 117.496 478.154 116.78 478.154ZM116.785 476.906C117.249 476.906 117.634 476.784 117.939 476.538C118.244 476.293 118.469 475.967 118.615 475.559C118.764 475.151 118.839 474.702 118.839 474.212C118.839 473.724 118.764 473.277 118.615 472.869C118.469 472.458 118.244 472.129 117.939 471.88C117.634 471.631 117.249 471.507 116.785 471.507C116.318 471.507 115.93 471.631 115.622 471.88C115.317 472.129 115.09 472.458 114.941 472.869C114.795 473.277 114.722 473.724 114.722 474.212C114.722 474.702 114.795 475.151 114.941 475.559C115.09 475.967 115.317 476.293 115.622 476.538C115.93 476.784 116.318 476.906 116.785 476.906ZM122.119 478V467.818H123.605V471.602H123.695C123.781 471.442 123.905 471.259 124.067 471.05C124.23 470.841 124.455 470.659 124.744 470.503C125.032 470.344 125.413 470.264 125.887 470.264C126.504 470.264 127.054 470.42 127.538 470.732C128.022 471.043 128.401 471.492 128.676 472.079C128.955 472.665 129.094 473.371 129.094 474.197C129.094 475.022 128.956 475.73 128.681 476.32C128.406 476.906 128.028 477.359 127.548 477.677C127.067 477.992 126.518 478.149 125.902 478.149C125.438 478.149 125.058 478.071 124.763 477.915C124.472 477.76 124.243 477.577 124.077 477.369C123.912 477.16 123.784 476.974 123.695 476.812H123.57V478H122.119ZM123.575 474.182C123.575 474.719 123.653 475.189 123.809 475.594C123.965 475.998 124.19 476.315 124.485 476.543C124.78 476.769 125.141 476.881 125.569 476.881C126.013 476.881 126.384 476.764 126.683 476.528C126.981 476.29 127.206 475.967 127.359 475.559C127.514 475.151 127.592 474.692 127.592 474.182C127.592 473.678 127.516 473.226 127.364 472.825C127.214 472.424 126.989 472.107 126.688 471.875C126.389 471.643 126.016 471.527 125.569 471.527C125.138 471.527 124.773 471.638 124.475 471.86C124.18 472.082 123.956 472.392 123.804 472.79C123.652 473.187 123.575 473.652 123.575 474.182ZM130.763 478V470.364H132.249V478H130.763ZM131.514 469.185C131.255 469.185 131.033 469.099 130.847 468.927C130.665 468.751 130.574 468.542 130.574 468.3C130.574 468.055 130.665 467.846 130.847 467.674C131.033 467.498 131.255 467.411 131.514 467.411C131.772 467.411 131.993 467.498 132.175 467.674C132.36 467.846 132.453 468.055 132.453 468.3C132.453 468.542 132.36 468.751 132.175 468.927C131.993 469.099 131.772 469.185 131.514 469.185ZM135.736 467.818V478H134.249V467.818H135.736ZM141.027 478.154C140.274 478.154 139.626 477.993 139.083 477.672C138.543 477.347 138.125 476.891 137.83 476.305C137.538 475.715 137.393 475.024 137.393 474.232C137.393 473.449 137.538 472.76 137.83 472.163C138.125 471.567 138.536 471.101 139.063 470.766C139.593 470.432 140.213 470.264 140.922 470.264C141.353 470.264 141.771 470.335 142.175 470.478C142.58 470.621 142.943 470.844 143.264 471.149C143.586 471.454 143.839 471.85 144.025 472.337C144.21 472.821 144.303 473.41 144.303 474.102V474.629H138.233V473.516H142.846C142.846 473.125 142.767 472.778 142.608 472.477C142.449 472.172 142.225 471.931 141.937 471.756C141.652 471.58 141.317 471.492 140.932 471.492C140.515 471.492 140.15 471.595 139.839 471.8C139.53 472.003 139.292 472.268 139.123 472.596C138.957 472.921 138.874 473.274 138.874 473.655V474.525C138.874 475.035 138.964 475.469 139.143 475.827C139.325 476.185 139.578 476.459 139.903 476.648C140.228 476.833 140.608 476.926 141.042 476.926C141.323 476.926 141.58 476.886 141.812 476.807C142.044 476.724 142.245 476.601 142.414 476.439C142.583 476.277 142.712 476.076 142.802 475.837L144.209 476.091C144.096 476.505 143.894 476.868 143.602 477.18C143.314 477.488 142.951 477.728 142.513 477.901C142.079 478.07 141.584 478.154 141.027 478.154Z" fill="#212B36"/>
<path d="M196.766 476.011V474.768L201.165 467.818H202.145V469.648H201.523L198.376 474.629V474.709H204.407V476.011H196.766ZM201.593 478V475.634L201.603 475.067V467.818H203.06V478H201.593ZM209.5 478.139C208.877 478.139 208.317 478.02 207.82 477.781C207.326 477.539 206.932 477.208 206.637 476.787C206.342 476.366 206.184 475.885 206.164 475.345H207.656C207.692 475.783 207.886 476.142 208.238 476.424C208.589 476.706 209.01 476.847 209.5 476.847C209.891 476.847 210.238 476.757 210.539 476.578C210.844 476.396 211.083 476.146 211.255 475.827C211.431 475.509 211.519 475.146 211.519 474.739C211.519 474.324 211.429 473.955 211.25 473.63C211.071 473.305 210.824 473.05 210.51 472.864C210.198 472.679 209.84 472.584 209.436 472.581C209.127 472.581 208.818 472.634 208.506 472.74C208.194 472.846 207.943 472.985 207.75 473.158L206.343 472.949L206.915 467.818H212.513V469.136H208.193L207.87 471.984H207.929C208.128 471.792 208.392 471.631 208.72 471.502C209.051 471.373 209.406 471.308 209.784 471.308C210.404 471.308 210.955 471.456 211.439 471.751C211.926 472.046 212.309 472.448 212.588 472.959C212.869 473.466 213.009 474.049 213.005 474.709C213.009 475.368 212.859 475.957 212.558 476.474C212.26 476.991 211.845 477.398 211.315 477.697C210.788 477.992 210.183 478.139 209.5 478.139ZM220.136 476.091V475.554C220.136 475.17 220.215 474.818 220.374 474.5C220.537 474.179 220.772 473.922 221.08 473.729C221.392 473.534 221.768 473.436 222.209 473.436C222.66 473.436 223.038 473.532 223.343 473.724C223.647 473.917 223.878 474.174 224.034 474.495C224.193 474.817 224.272 475.17 224.272 475.554V476.091C224.272 476.475 224.193 476.828 224.034 477.15C223.874 477.468 223.641 477.725 223.333 477.92C223.028 478.113 222.653 478.209 222.209 478.209C221.762 478.209 221.384 478.113 221.075 477.92C220.767 477.725 220.534 477.468 220.374 477.15C220.215 476.828 220.136 476.475 220.136 476.091ZM221.294 475.554V476.091C221.294 476.376 221.362 476.634 221.498 476.866C221.634 477.098 221.871 477.214 222.209 477.214C222.544 477.214 222.777 477.098 222.91 476.866C223.043 476.634 223.109 476.376 223.109 476.091V475.554C223.109 475.269 223.044 475.01 222.915 474.778C222.789 474.546 222.554 474.43 222.209 474.43C221.878 474.43 221.642 474.546 221.503 474.778C221.364 475.01 221.294 475.269 221.294 475.554ZM215.015 470.264V469.727C215.015 469.343 215.095 468.99 215.254 468.668C215.416 468.347 215.651 468.09 215.96 467.898C216.271 467.705 216.647 467.609 217.088 467.609C217.539 467.609 217.917 467.705 218.222 467.898C218.527 468.09 218.757 468.347 218.913 468.668C219.069 468.99 219.146 469.343 219.146 469.727V470.264C219.146 470.649 219.067 471.002 218.908 471.323C218.752 471.641 218.52 471.898 218.212 472.094C217.907 472.286 217.532 472.382 217.088 472.382C216.637 472.382 216.258 472.286 215.95 472.094C215.645 471.898 215.413 471.641 215.254 471.323C215.095 471.002 215.015 470.649 215.015 470.264ZM216.178 469.727V470.264C216.178 470.549 216.245 470.808 216.377 471.04C216.513 471.272 216.75 471.388 217.088 471.388C217.42 471.388 217.652 471.272 217.784 471.04C217.92 470.808 217.988 470.549 217.988 470.264V469.727C217.988 469.442 217.923 469.184 217.794 468.952C217.665 468.72 217.43 468.604 217.088 468.604C216.757 468.604 216.521 468.72 216.382 468.952C216.246 469.184 216.178 469.442 216.178 469.727ZM215.487 478L222.487 467.818H223.676L216.676 478H215.487Z" fill="#212B36"/>
<circle cx="291" cy="441" r="6" fill="#6577F3"/>
<path d="M305.616 437.141V435.818H313.496V437.141H310.32V446H308.788V437.141H305.616ZM316.302 446.169C315.818 446.169 315.38 446.08 314.989 445.901C314.598 445.718 314.288 445.455 314.059 445.11C313.834 444.765 313.721 444.343 313.721 443.842C313.721 443.411 313.804 443.057 313.97 442.778C314.136 442.5 314.359 442.28 314.641 442.117C314.923 441.955 315.238 441.832 315.586 441.749C315.934 441.666 316.288 441.603 316.65 441.56C317.107 441.507 317.478 441.464 317.763 441.431C318.048 441.395 318.256 441.337 318.385 441.257C318.514 441.178 318.579 441.048 318.579 440.869V440.835C318.579 440.4 318.456 440.064 318.211 439.825C317.969 439.587 317.608 439.467 317.127 439.467C316.626 439.467 316.232 439.578 315.944 439.8C315.659 440.019 315.461 440.263 315.352 440.531L313.955 440.213C314.121 439.749 314.363 439.375 314.681 439.089C315.002 438.801 315.372 438.592 315.79 438.463C316.207 438.33 316.646 438.264 317.107 438.264C317.412 438.264 317.735 438.301 318.077 438.374C318.421 438.443 318.743 438.572 319.041 438.761C319.343 438.95 319.59 439.22 319.782 439.572C319.974 439.92 320.07 440.372 320.07 440.929V446H318.618V444.956H318.559C318.463 445.148 318.318 445.337 318.126 445.523C317.934 445.708 317.687 445.862 317.385 445.985C317.084 446.108 316.723 446.169 316.302 446.169ZM316.625 444.976C317.036 444.976 317.387 444.895 317.679 444.732C317.974 444.57 318.198 444.358 318.35 444.096C318.506 443.831 318.584 443.547 318.584 443.246V442.261C318.531 442.314 318.428 442.364 318.275 442.411C318.126 442.454 317.956 442.492 317.763 442.525C317.571 442.555 317.384 442.583 317.202 442.609C317.019 442.633 316.867 442.652 316.744 442.669C316.456 442.705 316.192 442.767 315.954 442.853C315.718 442.939 315.529 443.063 315.387 443.226C315.248 443.385 315.178 443.597 315.178 443.862C315.178 444.23 315.314 444.509 315.586 444.697C315.858 444.883 316.204 444.976 316.625 444.976ZM322.169 446V435.818H323.656V439.602H323.745C323.832 439.442 323.956 439.259 324.118 439.05C324.281 438.841 324.506 438.659 324.794 438.503C325.083 438.344 325.464 438.264 325.938 438.264C326.554 438.264 327.105 438.42 327.588 438.732C328.072 439.043 328.452 439.492 328.727 440.079C329.005 440.665 329.145 441.371 329.145 442.197C329.145 443.022 329.007 443.73 328.732 444.32C328.457 444.906 328.079 445.359 327.598 445.677C327.118 445.992 326.569 446.149 325.953 446.149C325.489 446.149 325.109 446.071 324.814 445.915C324.523 445.76 324.294 445.577 324.128 445.369C323.962 445.16 323.835 444.974 323.745 444.812H323.621V446H322.169ZM323.626 442.182C323.626 442.719 323.704 443.189 323.86 443.594C324.016 443.998 324.241 444.315 324.536 444.543C324.831 444.769 325.192 444.881 325.62 444.881C326.064 444.881 326.435 444.764 326.733 444.528C327.032 444.29 327.257 443.967 327.409 443.559C327.565 443.151 327.643 442.692 327.643 442.182C327.643 441.678 327.567 441.226 327.414 440.825C327.265 440.424 327.04 440.107 326.738 439.875C326.44 439.643 326.067 439.527 325.62 439.527C325.189 439.527 324.824 439.638 324.526 439.86C324.231 440.082 324.007 440.392 323.855 440.79C323.702 441.187 323.626 441.652 323.626 442.182ZM332.3 435.818V446H330.814V435.818H332.3ZM337.591 446.154C336.839 446.154 336.191 445.993 335.647 445.672C335.107 445.347 334.69 444.891 334.395 444.305C334.103 443.715 333.957 443.024 333.957 442.232C333.957 441.449 334.103 440.76 334.395 440.163C334.69 439.567 335.1 439.101 335.627 438.766C336.158 438.432 336.778 438.264 337.487 438.264C337.918 438.264 338.335 438.335 338.74 438.478C339.144 438.621 339.507 438.844 339.828 439.149C340.15 439.454 340.404 439.85 340.589 440.337C340.775 440.821 340.868 441.41 340.868 442.102V442.629H334.797V441.516H339.411C339.411 441.125 339.331 440.778 339.172 440.477C339.013 440.172 338.789 439.931 338.501 439.756C338.216 439.58 337.881 439.492 337.497 439.492C337.079 439.492 336.715 439.595 336.403 439.8C336.095 440.003 335.856 440.268 335.687 440.596C335.521 440.921 335.439 441.274 335.439 441.655V442.525C335.439 443.035 335.528 443.469 335.707 443.827C335.889 444.185 336.143 444.459 336.468 444.648C336.792 444.833 337.172 444.926 337.606 444.926C337.888 444.926 338.145 444.886 338.377 444.807C338.609 444.724 338.809 444.601 338.978 444.439C339.147 444.277 339.277 444.076 339.366 443.837L340.773 444.091C340.66 444.505 340.458 444.868 340.167 445.18C339.878 445.488 339.515 445.728 339.078 445.901C338.644 446.07 338.148 446.154 337.591 446.154ZM346.081 438.364V439.557H341.91V438.364H346.081ZM343.029 436.534H344.515V443.758C344.515 444.046 344.559 444.263 344.645 444.409C344.731 444.552 344.842 444.649 344.978 444.702C345.117 444.752 345.268 444.777 345.43 444.777C345.55 444.777 345.654 444.769 345.743 444.752C345.833 444.736 345.903 444.722 345.952 444.712L346.221 445.94C346.135 445.973 346.012 446.007 345.853 446.04C345.694 446.076 345.495 446.096 345.256 446.099C344.865 446.106 344.501 446.036 344.162 445.891C343.824 445.745 343.551 445.519 343.342 445.214C343.133 444.91 343.029 444.527 343.029 444.066V436.534Z" fill="#212B36"/>
<path d="M403.524 446.139C402.841 446.139 402.232 446.022 401.695 445.786C401.161 445.551 400.738 445.224 400.427 444.807C400.119 444.386 399.953 443.899 399.93 443.345H401.491C401.511 443.647 401.612 443.909 401.794 444.131C401.98 444.349 402.222 444.518 402.52 444.638C402.818 444.757 403.15 444.817 403.514 444.817C403.915 444.817 404.27 444.747 404.578 444.608C404.89 444.469 405.133 444.275 405.309 444.026C405.485 443.774 405.572 443.484 405.572 443.156C405.572 442.815 405.485 442.515 405.309 442.256C405.137 441.995 404.883 441.789 404.548 441.64C404.217 441.491 403.816 441.416 403.345 441.416H402.485V440.163H403.345C403.723 440.163 404.054 440.095 404.339 439.96C404.628 439.824 404.853 439.635 405.016 439.393C405.178 439.147 405.259 438.861 405.259 438.533C405.259 438.218 405.188 437.944 405.045 437.712C404.906 437.477 404.707 437.293 404.449 437.161C404.194 437.028 403.892 436.962 403.544 436.962C403.213 436.962 402.903 437.023 402.614 437.146C402.329 437.265 402.097 437.437 401.918 437.663C401.739 437.885 401.643 438.152 401.63 438.463H400.143C400.16 437.913 400.322 437.429 400.631 437.011C400.942 436.594 401.353 436.267 401.864 436.032C402.374 435.797 402.941 435.679 403.564 435.679C404.217 435.679 404.78 435.807 405.254 436.062C405.732 436.314 406.099 436.65 406.358 437.071C406.62 437.492 406.749 437.953 406.746 438.453C406.749 439.023 406.59 439.507 406.268 439.905C405.95 440.303 405.526 440.569 404.996 440.705V440.785C405.672 440.888 406.196 441.156 406.567 441.59C406.941 442.024 407.127 442.563 407.124 443.206C407.127 443.766 406.971 444.268 406.656 444.712C406.345 445.156 405.919 445.506 405.379 445.761C404.838 446.013 404.22 446.139 403.524 446.139ZM408.789 444.011V442.768L413.189 435.818H414.168V437.648H413.547L410.4 442.629V442.709H416.43V444.011H408.789ZM413.616 446V443.634L413.626 443.067V435.818H415.083V446H413.616ZM423.478 444.091V443.554C423.478 443.17 423.557 442.818 423.716 442.5C423.879 442.179 424.114 441.922 424.422 441.729C424.734 441.534 425.11 441.436 425.551 441.436C426.002 441.436 426.379 441.532 426.684 441.724C426.989 441.917 427.22 442.174 427.375 442.495C427.534 442.817 427.614 443.17 427.614 443.554V444.091C427.614 444.475 427.534 444.828 427.375 445.15C427.216 445.468 426.983 445.725 426.674 445.92C426.369 446.113 425.995 446.209 425.551 446.209C425.103 446.209 424.725 446.113 424.417 445.92C424.109 445.725 423.875 445.468 423.716 445.15C423.557 444.828 423.478 444.475 423.478 444.091ZM424.636 443.554V444.091C424.636 444.376 424.704 444.634 424.84 444.866C424.976 445.098 425.213 445.214 425.551 445.214C425.886 445.214 426.119 445.098 426.252 444.866C426.384 444.634 426.451 444.376 426.451 444.091V443.554C426.451 443.269 426.386 443.01 426.257 442.778C426.131 442.546 425.895 442.43 425.551 442.43C425.219 442.43 424.984 442.546 424.845 442.778C424.706 443.01 424.636 443.269 424.636 443.554ZM418.357 438.264V437.727C418.357 437.343 418.436 436.99 418.596 436.668C418.758 436.347 418.993 436.09 419.301 435.898C419.613 435.705 419.989 435.609 420.43 435.609C420.881 435.609 421.259 435.705 421.564 435.898C421.868 436.09 422.099 436.347 422.255 436.668C422.41 436.99 422.488 437.343 422.488 437.727V438.264C422.488 438.649 422.409 439.002 422.25 439.323C422.094 439.641 421.862 439.898 421.554 440.094C421.249 440.286 420.874 440.382 420.43 440.382C419.979 440.382 419.6 440.286 419.292 440.094C418.987 439.898 418.755 439.641 418.596 439.323C418.436 439.002 418.357 438.649 418.357 438.264ZM419.52 437.727V438.264C419.52 438.549 419.587 438.808 419.719 439.04C419.855 439.272 420.092 439.388 420.43 439.388C420.761 439.388 420.993 439.272 421.126 439.04C421.262 438.808 421.33 438.549 421.33 438.264V437.727C421.33 437.442 421.265 437.184 421.136 436.952C421.007 436.72 420.771 436.604 420.43 436.604C420.099 436.604 419.863 436.72 419.724 436.952C419.588 437.184 419.52 437.442 419.52 437.727ZM418.829 446L425.829 435.818H427.017L420.017 446H418.829Z" fill="#212B36"/>
<circle cx="291" cy="473" r="6" fill="#0FADCF"/>
<path d="M312.666 467.818H314.207V474.515C314.207 475.228 314.04 475.859 313.705 476.409C313.371 476.956 312.9 477.387 312.293 477.702C311.687 478.013 310.976 478.169 310.161 478.169C309.348 478.169 308.639 478.013 308.033 477.702C307.426 477.387 306.955 476.956 306.621 476.409C306.286 475.859 306.119 475.228 306.119 474.515V467.818H307.655V474.391C307.655 474.851 307.756 475.261 307.958 475.619C308.164 475.977 308.454 476.258 308.828 476.464C309.203 476.666 309.647 476.767 310.161 476.767C310.678 476.767 311.123 476.666 311.498 476.464C311.876 476.258 312.164 475.977 312.363 475.619C312.565 475.261 312.666 474.851 312.666 474.391V467.818ZM317.808 473.466V478H316.322V470.364H317.748V471.607H317.843C318.019 471.202 318.294 470.877 318.668 470.632C319.046 470.387 319.522 470.264 320.095 470.264C320.615 470.264 321.071 470.374 321.462 470.592C321.853 470.808 322.157 471.129 322.372 471.557C322.587 471.984 322.695 472.513 322.695 473.143V478H321.209V473.322C321.209 472.768 321.064 472.336 320.776 472.024C320.488 471.709 320.092 471.552 319.588 471.552C319.243 471.552 318.937 471.626 318.668 471.776C318.403 471.925 318.193 472.143 318.037 472.432C317.884 472.717 317.808 473.062 317.808 473.466ZM326.056 475.41L326.046 473.595H326.305L329.347 470.364H331.127L327.657 474.043H327.423L326.056 475.41ZM324.689 478V467.818H326.175V478H324.689ZM329.511 478L326.777 474.371L327.801 473.332L331.336 478H329.511ZM333.968 473.466V478H332.482V470.364H333.909V471.607H334.003C334.179 471.202 334.454 470.877 334.828 470.632C335.206 470.387 335.682 470.264 336.255 470.264C336.776 470.264 337.231 470.374 337.622 470.592C338.013 470.808 338.317 471.129 338.532 471.557C338.748 471.984 338.855 472.513 338.855 473.143V478H337.369V473.322C337.369 472.768 337.225 472.336 336.936 472.024C336.648 471.709 336.252 471.552 335.748 471.552C335.403 471.552 335.097 471.626 334.828 471.776C334.563 471.925 334.353 472.143 334.197 472.432C334.044 472.717 333.968 473.062 333.968 473.466ZM344.066 478.154C343.35 478.154 342.725 477.99 342.191 477.662C341.658 477.334 341.243 476.875 340.948 476.285C340.653 475.695 340.506 475.005 340.506 474.217C340.506 473.424 340.653 472.732 340.948 472.138C341.243 471.545 341.658 471.085 342.191 470.756C342.725 470.428 343.35 470.264 344.066 470.264C344.781 470.264 345.406 470.428 345.94 470.756C346.473 471.085 346.888 471.545 347.183 472.138C347.478 472.732 347.625 473.424 347.625 474.217C347.625 475.005 347.478 475.695 347.183 476.285C346.888 476.875 346.473 477.334 345.94 477.662C345.406 477.99 344.781 478.154 344.066 478.154ZM344.07 476.906C344.535 476.906 344.919 476.784 345.224 476.538C345.529 476.293 345.754 475.967 345.9 475.559C346.049 475.151 346.124 474.702 346.124 474.212C346.124 473.724 346.049 473.277 345.9 472.869C345.754 472.458 345.529 472.129 345.224 471.88C344.919 471.631 344.535 471.507 344.07 471.507C343.603 471.507 343.215 471.631 342.907 471.88C342.602 472.129 342.375 472.458 342.226 472.869C342.08 473.277 342.007 473.724 342.007 474.212C342.007 474.702 342.08 475.151 342.226 475.559C342.375 475.967 342.602 476.293 342.907 476.538C343.215 476.784 343.603 476.906 344.07 476.906ZM350.708 478L348.46 470.364H349.997L351.493 475.972H351.568L353.069 470.364H354.605L356.097 475.947H356.171L357.658 470.364H359.194L356.952 478H355.436L353.884 472.487H353.77L352.219 478H350.708ZM362.091 473.466V478H360.605V470.364H362.032V471.607H362.126C362.302 471.202 362.577 470.877 362.951 470.632C363.329 470.387 363.805 470.264 364.378 470.264C364.899 470.264 365.354 470.374 365.745 470.592C366.136 470.808 366.44 471.129 366.655 471.557C366.871 471.984 366.978 472.513 366.978 473.143V478H365.492V473.322C365.492 472.768 365.348 472.336 365.059 472.024C364.771 471.709 364.375 471.552 363.871 471.552C363.526 471.552 363.22 471.626 362.951 471.776C362.686 471.925 362.476 472.143 362.32 472.432C362.167 472.717 362.091 473.062 362.091 473.466Z" fill="#212B36"/>
<path d="M403.842 467.818V478H402.301V469.359H402.241L399.805 470.95V469.479L402.346 467.818H403.842ZM406.597 478V476.886L410.042 473.317C410.41 472.929 410.713 472.589 410.952 472.298C411.194 472.003 411.374 471.723 411.494 471.457C411.613 471.192 411.673 470.911 411.673 470.612C411.673 470.274 411.593 469.982 411.434 469.737C411.275 469.489 411.058 469.298 410.783 469.165C410.508 469.03 410.198 468.962 409.853 468.962C409.488 468.962 409.17 469.036 408.898 469.185C408.627 469.335 408.418 469.545 408.272 469.817C408.126 470.089 408.053 470.407 408.053 470.771H406.587C406.587 470.152 406.729 469.61 407.014 469.146C407.299 468.682 407.69 468.322 408.188 468.067C408.685 467.808 409.25 467.679 409.883 467.679C410.522 467.679 411.086 467.807 411.573 468.062C412.064 468.314 412.446 468.658 412.722 469.096C412.997 469.53 413.134 470.021 413.134 470.567C413.134 470.945 413.063 471.315 412.92 471.676C412.781 472.037 412.538 472.44 412.19 472.884C411.842 473.325 411.358 473.86 410.738 474.49L408.714 476.608V476.683H413.298V478H406.597ZM420.497 476.091V475.554C420.497 475.17 420.577 474.818 420.736 474.5C420.898 474.179 421.134 473.922 421.442 473.729C421.753 473.534 422.129 473.436 422.57 473.436C423.021 473.436 423.399 473.532 423.704 473.724C424.009 473.917 424.239 474.174 424.395 474.495C424.554 474.817 424.634 475.17 424.634 475.554V476.091C424.634 476.475 424.554 476.828 424.395 477.15C424.236 477.468 424.002 477.725 423.694 477.92C423.389 478.113 423.014 478.209 422.57 478.209C422.123 478.209 421.745 478.113 421.437 477.92C421.129 477.725 420.895 477.468 420.736 477.15C420.577 476.828 420.497 476.475 420.497 476.091ZM421.656 475.554V476.091C421.656 476.376 421.723 476.634 421.859 476.866C421.995 477.098 422.232 477.214 422.57 477.214C422.905 477.214 423.139 477.098 423.271 476.866C423.404 476.634 423.47 476.376 423.47 476.091V475.554C423.47 475.269 423.406 475.01 423.276 474.778C423.15 474.546 422.915 474.43 422.57 474.43C422.239 474.43 422.004 474.546 421.864 474.778C421.725 475.01 421.656 475.269 421.656 475.554ZM415.376 470.264V469.727C415.376 469.343 415.456 468.99 415.615 468.668C415.777 468.347 416.013 468.09 416.321 467.898C416.633 467.705 417.009 467.609 417.45 467.609C417.9 467.609 418.278 467.705 418.583 467.898C418.888 468.09 419.118 468.347 419.274 468.668C419.43 468.99 419.508 469.343 419.508 469.727V470.264C419.508 470.649 419.428 471.002 419.269 471.323C419.113 471.641 418.881 471.898 418.573 472.094C418.268 472.286 417.894 472.382 417.45 472.382C416.999 472.382 416.619 472.286 416.311 472.094C416.006 471.898 415.774 471.641 415.615 471.323C415.456 471.002 415.376 470.649 415.376 470.264ZM416.54 469.727V470.264C416.54 470.549 416.606 470.808 416.739 471.04C416.875 471.272 417.112 471.388 417.45 471.388C417.781 471.388 418.013 471.272 418.146 471.04C418.281 470.808 418.349 470.549 418.349 470.264V469.727C418.349 469.442 418.285 469.184 418.156 468.952C418.026 468.72 417.791 468.604 417.45 468.604C417.118 468.604 416.883 468.72 416.744 468.952C416.608 469.184 416.54 469.442 416.54 469.727ZM415.849 478L422.849 467.818H424.037L417.037 478H415.849Z" fill="#212B36"/>
<defs>
<filter id="filter0_d_7_1527" x="26.108" y="360.125" width="57.4062" height="14.1136" filterUnits="userSpaceOnUse" color-interpolation-filters="sRGB">
<feFlood flood-opacity="0" result="BackgroundImageFix"/>
<feColorMatrix in="SourceAlpha" type="matrix" values="0 0 0 0 0 0 0 0 0 0 0 0 0 0 0 0 0 0 127 0" result="hardAlpha"/>
<feOffset dy="1"/>
<feGaussianBlur stdDeviation="0.5"/>
<feComposite in2="hardAlpha" operator="out"/>
<feColorMatrix type="matrix" values="0 0 0 0 0 0 0 0 0 0 0 0 0 0 0 0 0 0 0.1 0"/>
<feBlend mode="normal" in2="BackgroundImageFix" result="effect1_dropShadow_7_1527"/>
<feBlend mode="normal" in="SourceGraphic" in2="effect1_dropShadow_7_1527" result="shape"/>
</filter>
</defs>
</svg>
